<svg width="100" height="100" viewBox="0 0 64 64" fill="none" xmlns="http://www.w3.org/2000/svg">
<path d="M64 32C64 49.6731 49.6731 64 32 64C14.3269 64 0 49.6731 0 32C0 14.3269 14.3269 8.71805e-06 32 8.71805e-06C49.6731 8.71805e-06 64 14.3269 64 32Z" fill="#D5D5D5"/>
<mask id="mask0_1774_6816" style="mask-type:alpha" maskUnits="userSpaceOnUse" x="6" y="9" width="52" height="52">
<g clip-path="url(#clip0_1774_6816)">
<path d="M32 34.0031C37.6964 34.0031 42.3103 29.4116 42.3103 23.7428C42.3103 18.0739 37.6964 13.4824 32 13.4824C26.3035 13.4824 21.6896 18.0739 21.6896 23.7428C21.6896 29.4116 26.3035 34.0031 32 34.0031ZM32 39.1333C25.1178 39.1333 11.3793 42.5705 11.3793 49.3936V66.379H52.6207V49.3936C52.6207 42.5705 38.8821 39.1333 32 39.1333Z" fill="#323232"/>
</g>
</mask>
<g mask="url(#mask0_1774_6816)">
<path d="M57.3797 32.6215C57.3797 46.6381 46.017 58.0008 32.0004 58.0008C17.9838 58.0008 6.62109 46.6381 6.62109 32.6215C6.62109 18.6049 17.9838 7.24219 32.0004 7.24219C46.017 7.24219 57.3797 18.6049 57.3797 32.6215Z" fill="white"/>
</g>
<defs>
<clipPath id="clip0_1774_6816">
<rect width="52" height="52" fill="white" transform="translate(6 9)"/>
</clipPath>
</defs>
</svg>
