<svg width="1208" height="167" viewBox="0 0 1208 167" fill="none" xmlns="http://www.w3.org/2000/svg">
<path d="M560.72 47.2988C543.66 47.2988 528.4 54.9488 518.14 66.9888C507.88 54.9488 492.62 47.2988 475.56 47.2988C444.68 47.2988 419.64 72.3388 419.64 103.219C419.64 134.099 444.68 159.139 475.56 159.139C492.62 159.139 507.88 151.489 518.14 139.449C528.4 151.489 543.66 159.139 560.72 159.139C591.6 159.139 616.64 134.099 616.64 103.219C616.64 72.3388 591.6 47.2988 560.72 47.2988Z" fill="white"/>
<path d="M731.78 56.8697C726.36 51.1497 719.85 46.7097 712.25 43.5397C704.65 40.3697 696.24 38.7797 687.02 38.7797C677.8 38.7797 669.39 40.2597 661.79 43.2097C654.19 46.1597 647.66 50.3997 642.21 55.9297C636.75 61.4597 632.51 68.1597 629.49 76.0097C627.92 80.0997 626.76 84.4497 626.01 89.0397V31.5497C626.01 26.7397 625.23 22.4897 623.66 18.7897C622.1 15.0897 619.92 11.9597 617.14 9.40969C614.35 6.85969 611.06 4.92968 607.24 3.62968C603.42 2.32968 599.31 1.67969 594.88 1.67969C590.84 1.67969 587.23 2.03968 584.07 2.76968C580.9 3.49968 578.04 4.48969 575.49 5.74969C572.93 7.00969 570.63 8.51968 568.57 10.2697C566.51 12.0297 564.6 13.9297 562.85 15.9897C563.38 17.1297 563.84 18.4897 564.22 20.0497C564.6 21.6097 564.92 23.2197 565.19 24.8597C565.46 26.4997 565.65 28.1797 565.76 29.8997C565.87 31.6197 565.93 33.1997 565.93 34.6497C568.52 34.6497 571.27 34.8597 574.17 35.2797C577.07 35.6997 579.72 36.2697 582.12 36.9997C584.52 37.7297 586.51 38.5797 588.07 39.5797C589.63 40.5697 590.42 41.6797 590.42 42.8997C590.42 43.2797 590.31 43.7197 590.08 44.2197C589.85 44.7197 589.54 45.1597 589.16 45.5397L589.41 45.9497C580.61 41.3897 570.62 38.7997 560.02 38.7997C543.69 38.7997 528.79 44.9297 517.48 54.9897C517.94 54.5797 518.4 54.1797 518.88 53.7797C507.75 44.4297 493.4 38.7997 477.73 38.7997C454.17 38.7997 433.6 51.5297 422.48 70.4897C422.86 68.0397 423.07 65.6697 423.07 63.3897C423.07 59.2697 422.52 55.1297 421.41 50.9697C420.3 46.8097 418.64 42.0597 416.43 38.6997H396.63V11.6597C392.66 10.8197 389.02 10.2097 385.7 9.82969C382.38 9.44969 379.08 9.25969 375.8 9.25969C371.6 9.25969 367.48 9.48968 363.44 9.94968C359.4 10.4097 356.15 10.9397 353.71 11.5497C353.1 13.3097 352.37 15.4997 351.54 18.1297C350.7 20.7597 349.82 23.4897 348.91 26.3097C347.99 29.1297 347.08 31.8397 346.16 34.4297C345.59 36.0497 345.06 37.4597 344.58 38.6897H319.35V11.6497C315.38 10.8097 311.74 10.1997 308.42 9.81969C305.1 9.43969 301.8 9.24969 298.52 9.24969C294.32 9.24969 290.2 9.47969 286.16 9.93969C282.12 10.3997 278.87 10.9297 276.43 11.5397C275.82 13.2997 275.09 15.4897 274.26 18.1197C273.42 20.7497 272.54 23.4797 271.63 26.2997C270.71 29.1197 269.8 31.8297 268.88 34.4197C267.96 37.0097 267.16 39.1097 266.48 40.7097C264.04 42.5397 261.23 44.5997 258.07 46.8897C254.9 49.1797 251.72 51.3097 248.51 53.2997C248.05 55.2097 247.69 57.5897 247.42 60.4497C247.21 62.6797 247.09 64.6997 247.04 66.5297C244.9 63.0197 242.45 59.7897 239.67 56.8597C234.25 51.1397 227.74 46.6997 220.14 43.5297C212.54 40.3597 204.13 38.7697 194.91 38.7697C185.69 38.7697 177.28 40.2497 169.68 43.1997C162.08 46.1497 155.55 50.3897 150.1 55.9197C144.64 61.4497 140.4 68.1497 137.38 75.9997C136.91 77.2097 136.5 78.4497 136.1 79.7097V39.8997C136.1 35.0897 135.14 31.0897 133.24 27.8797C131.33 24.6797 128.8 22.1197 125.63 20.2097C122.46 18.2997 118.84 16.9497 114.76 16.1497C110.68 15.3497 106.5 14.9497 102.23 14.9497C99.4798 14.9497 96.6598 15.1597 93.7598 15.5797C90.8598 15.9997 88.0398 16.6297 85.2898 17.4697C82.5398 18.3097 79.9298 19.3597 77.4498 20.6197C74.9698 21.8797 72.7398 23.3497 70.7498 25.0297V31.3197L83.1098 52.5997C83.7999 53.7397 84.4398 54.9097 85.0598 56.0897C85.6698 57.2697 85.9698 58.2797 85.9698 59.1197C85.9698 60.2597 85.6099 61.0797 84.8799 61.5797C84.1498 62.0797 83.4098 62.3197 82.6498 62.3197C80.1298 58.1197 77.6698 54.0197 75.2698 50.0197C72.8698 46.0197 70.5598 42.2397 68.3498 38.6897C66.1398 35.1397 64.0398 31.8997 62.0598 28.9597C60.0798 26.0197 58.2498 23.4897 56.5698 21.3497C54.3598 19.5997 51.1098 18.1097 46.8398 16.8897C42.5698 15.6697 37.9098 15.0597 32.8798 15.0597C28.4498 15.0597 24.2998 15.4197 20.4098 16.1497C16.5198 16.8797 13.1198 17.8497 10.2298 19.0697C7.32984 20.2897 5.03984 21.7597 3.35984 23.4797C1.67984 25.1997 0.839844 27.0097 0.839844 28.9197V143.58C0.839844 147.4 1.67984 150.75 3.35984 153.65C5.03984 156.55 7.39984 158.97 10.4498 160.92C13.4998 162.87 17.1198 164.34 21.3198 165.33C25.5098 166.32 30.0898 166.82 35.0498 166.82C39.3998 166.82 43.2498 166.51 46.6098 165.9C49.9698 165.29 52.9198 164.55 55.4798 163.67C58.0398 162.79 60.1898 161.86 61.9498 160.87C63.6998 159.88 65.1498 159 66.2999 158.24V152.18L51.9998 129.06C51.0098 127.46 50.2098 126.1 49.5998 125C48.9898 123.9 48.6798 122.77 48.6798 121.62C48.6798 120.7 48.9098 119.92 49.3698 119.27C49.8298 118.62 50.6998 118.22 51.9998 118.07C53.7498 120.97 55.5798 124.04 57.4898 127.28C59.3998 130.52 61.4598 133.94 63.6698 137.52C65.8798 141.11 68.2999 144.84 70.9398 148.73C73.5798 152.62 76.5298 156.67 79.8098 160.86C81.1798 161.7 82.8198 162.46 84.7298 163.15C86.6398 163.84 88.6898 164.45 90.9099 164.98C93.1199 165.51 95.4698 165.91 97.9498 166.18C100.43 166.45 102.89 166.58 105.33 166.58C109.29 166.58 113.13 166.27 116.83 165.66C120.53 165.05 123.81 164.04 126.67 162.63C129.53 161.22 131.82 159.33 133.54 156.97C135.26 154.61 136.11 151.71 136.11 148.27V126C136.6 127.58 137.12 129.12 137.72 130.6C140.97 138.64 145.37 145.35 150.94 150.74C156.51 156.13 163.07 160.15 170.63 162.8C178.19 165.46 186.29 166.78 194.92 166.78C204.58 166.78 213.25 165.3 220.92 162.35C228.59 159.4 235.08 155.18 240.39 149.68C245.7 144.19 249.76 137.53 252.56 129.71C255.36 121.89 256.76 113.11 256.76 103.38C256.76 97.7397 256.21 92.3797 255.15 87.2697H275.17C275.32 87.7297 275.4 88.1897 275.4 88.6397C275.4 89.7797 274.94 90.6997 274.03 91.3897C273.11 92.0797 271.66 92.4197 269.68 92.4197H262.59V125.49C262.59 132.51 263.58 138.59 265.57 143.74C267.55 148.89 270.38 153.18 274.04 156.61C277.7 160.04 282.07 162.6 287.14 164.28C292.21 165.96 297.84 166.8 304.02 166.8C316.3 166.8 325.76 164.02 332.4 158.45C337.58 154.1 340.73 148.21 341.87 140.8C342.17 141.81 342.49 142.8 342.85 143.75C344.83 148.9 347.66 153.19 351.32 156.62C354.98 160.05 359.35 162.61 364.42 164.29C369.49 165.97 375.12 166.81 381.3 166.81C393.58 166.81 403.04 164.03 409.68 158.46C416.32 152.89 419.64 144.81 419.64 134.2C419.64 132.45 419.52 130.69 419.29 128.94C429.29 151.26 451.69 166.82 477.73 166.82C493.4 166.82 507.75 161.18 518.88 151.83C530.01 161.18 544.36 166.82 560.03 166.82C569 166.82 577.54 164.97 585.3 161.63C586.02 162.13 586.75 162.61 587.51 163.03C589.84 164.33 592.32 165.28 594.95 165.89C597.58 166.5 600.27 166.81 603.02 166.81C606.91 166.81 610.72 166.16 614.46 164.86C618.2 163.56 621.54 161.56 624.47 158.85C627.41 156.14 629.79 152.69 631.62 148.49C632.82 145.74 633.62 142.64 634.03 139.19C636.59 143.55 639.59 147.4 643.05 150.74C648.62 156.13 655.18 160.15 662.75 162.8C670.31 165.46 678.41 166.78 687.04 166.78C696.7 166.78 705.37 165.3 713.04 162.35C720.71 159.4 727.2 155.18 732.51 149.68C737.82 144.19 741.88 137.53 744.68 129.71C747.48 121.89 748.88 113.11 748.88 103.38C748.88 93.6497 747.39 85.2497 744.4 77.3197C741.41 69.3897 737.21 62.5697 731.79 56.8497L731.78 56.8697ZM198.25 116.44C198.25 118.36 198.01 119.74 197.53 120.59C197.05 121.44 196.11 121.86 194.71 121.86C193.68 121.86 192.9 121.6 192.39 121.08V101.72C192.39 99.2897 192.35 97.1997 192.28 95.4697C192.21 93.7397 192.13 92.2197 192.06 90.9297C191.99 89.6397 191.87 88.4797 191.73 87.4397C191.58 86.4097 191.47 85.2997 191.4 84.1197C191.69 83.8297 192.04 83.5697 192.45 83.3497C192.86 83.1297 193.39 83.0197 194.05 83.0197C194.79 83.0197 195.43 83.2397 195.99 83.6797C196.54 84.1197 197 85.0797 197.37 86.5597C197.74 88.0397 197.98 89.9197 198.09 92.1997C198.2 94.4897 198.26 97.2897 198.26 100.61V116.43L198.25 116.44ZM351.32 91.3997C350.4 92.0897 348.95 92.4297 346.97 92.4297H339.88V119.09H335.04C331.15 119.09 328.13 117.97 326 115.71C323.86 113.46 322.8 109.7 322.8 104.44V87.1597H326.81C326.81 87.1597 326.83 87.2397 326.84 87.2697H352.47C352.62 87.7297 352.7 88.1897 352.7 88.6397C352.7 89.7797 352.24 90.6997 351.33 91.3897L351.32 91.3997ZM412.31 119.09C408.42 119.09 405.4 117.97 403.27 115.71C401.13 113.46 400.07 109.7 400.07 104.44V87.1597H415.64C414.38 92.1597 413.71 97.3997 413.71 102.79C413.71 108.18 414.44 113.88 415.81 119.08H412.32L412.31 119.09ZM477.72 157.06C447.75 157.06 423.45 132.76 423.45 102.79C423.45 72.8197 447.75 48.5197 477.72 48.5197C480.66 48.5197 483.54 48.7597 486.35 49.2097C470.83 53.4497 459.42 67.6297 459.42 84.4997C459.42 104.7 475.8 121.08 496 121.08C496.89 121.08 497.76 121.04 498.63 120.98C501.29 129.96 505.85 138.1 511.87 144.96C502.54 152.52 490.67 157.06 477.73 157.06H477.72ZM560.01 157.06C530.04 157.06 505.74 132.76 505.74 102.79C505.74 72.8197 530.04 48.5197 560.01 48.5197C562.95 48.5197 565.83 48.7597 568.64 49.2097C553.12 53.4497 541.71 67.6297 541.71 84.4997C541.71 104.7 558.09 121.08 578.29 121.08C595.16 121.08 609.35 109.66 613.58 94.1297C614.03 96.9497 614.28 99.8397 614.28 102.79C614.28 132.76 589.98 157.06 560.01 157.06ZM690.34 116.45C690.34 118.37 690.1 119.75 689.62 120.6C689.14 121.45 688.2 121.87 686.8 121.87C685.77 121.87 684.99 121.61 684.48 121.09V101.73C684.48 99.2997 684.44 97.2097 684.37 95.4797C684.3 93.7497 684.22 92.2297 684.15 90.9397C684.08 89.6497 683.96 88.4897 683.82 87.4497C683.67 86.4197 683.56 85.3097 683.49 84.1297C683.78 83.8397 684.13 83.5797 684.54 83.3597C684.95 83.1397 685.48 83.0297 686.14 83.0297C686.88 83.0297 687.52 83.2497 688.08 83.6897C688.63 84.1297 689.09 85.0897 689.46 86.5697C689.83 88.0497 690.07 89.9297 690.18 92.2097C690.29 94.4997 690.35 97.2997 690.35 100.62V116.44L690.34 116.45Z" fill="#090909"/>
<path d="M876.06 49.0499C871.24 45.4199 865.56 42.6499 859.03 40.7599C852.5 38.8699 845.49 37.9199 838 37.9199C829.99 37.9199 822.21 39.2199 814.68 41.8199C807.15 44.4199 800.45 48.3299 794.59 53.5599C788.73 58.7899 784.02 65.3799 780.46 73.3099C776.9 81.2499 775.12 90.5199 775.12 101.13C775.12 111 776.58 119.98 779.52 128.06C782.45 136.15 786.66 143.05 792.15 148.76C797.64 154.47 804.28 158.91 812.07 162.06C819.86 165.21 828.65 166.79 838.45 166.79C846.91 166.79 854.25 165.71 860.49 163.56C866.72 161.41 871.9 158.63 876.02 155.21C880.14 151.8 883.22 147.96 885.26 143.69C887.3 139.42 888.32 135.14 888.32 130.84C888.32 126.17 887.78 122.12 886.71 118.71C885.63 115.3 884.32 112.4 882.76 110.03C880.38 111.59 877.36 112.96 873.69 114.15C870.02 115.34 865.47 115.93 860.06 115.93C855.01 115.93 850.56 115.17 846.71 113.65C842.85 112.13 839.62 110.24 837.03 107.97C834.43 105.71 832.45 103.24 831.08 100.57C829.71 97.8999 829.02 95.3799 829.02 92.9999C829.02 91.5899 829.48 90.6499 830.41 90.1599C831.34 89.6799 832.51 89.4399 833.92 89.4399C834.37 92.6299 835.33 95.5399 836.81 98.1799C838.29 100.81 840.2 103.08 842.54 104.97C844.88 106.86 847.62 108.33 850.78 109.37C853.93 110.41 857.4 110.93 861.19 110.93C865.71 110.93 869.85 110.19 873.6 108.7C877.35 107.22 880.56 105.12 883.23 102.41C885.9 99.6999 887.98 96.4699 889.46 92.7299C890.94 88.9899 891.69 84.8499 891.69 80.3199C891.69 73.5699 890.3 67.5799 887.52 62.3499C884.74 57.1199 880.93 52.6899 876.11 49.0499H876.06Z" fill="#090909"/>
<path d="M951.75 112.639C950.61 108.859 950.03 104.339 950.03 99.0792V26.6392C950.03 22.8992 949.44 19.5092 948.26 16.4592C947.08 13.4092 945.23 10.7992 942.71 8.61922C940.19 6.44922 936.97 4.74922 933.04 3.52922C929.11 2.30922 924.4 1.69922 918.91 1.69922C915.55 1.69922 912.39 1.98922 909.41 2.55922C906.43 3.12922 903.78 3.81922 901.46 4.61922C899.13 5.41922 897.13 6.23922 895.45 7.07922C893.77 7.91922 892.55 8.56922 891.79 9.02922V127.919C891.79 135.239 892.76 141.379 894.71 146.339C896.66 151.299 899.23 155.299 902.43 158.349C905.63 161.399 909.33 163.579 913.53 164.869C917.72 166.169 922.07 166.819 926.57 166.819C936.56 166.819 945.94 164.119 952.91 158.669C960.41 152.799 964.64 144.089 963.64 131.089C963.6 130.629 960.64 132.969 960.64 132.089C960.64 131.209 961.72 117.699 961.64 117.089C956.64 118.089 952.89 116.429 951.75 112.649V112.639Z" fill="#090909"/>
<path d="M1079.64 114.08C1078.64 112.08 1078.64 111.08 1078.26 106.93V47.16C1075.81 44.48 1072.18 42.25 1067.36 40.45C1062.54 38.65 1056.81 37.75 1050.15 37.75C1046.32 37.75 1042.94 37.98 1040 38.44C1037.05 38.9 1034.4 39.47 1032.03 40.16C1029.66 40.85 1027.57 41.63 1025.78 42.51C1023.98 43.39 1022.36 44.25 1020.9 45.09V101.76C1020.9 104.67 1020.99 107.04 1021.19 108.87C1021.38 110.71 1021.67 112.27 1022.05 113.57C1021.67 113.88 1021.26 114.14 1020.85 114.37C1020.43 114.6 1019.83 114.71 1019.07 114.71C1017.85 114.71 1016.83 113.93 1016.03 112.36C1015.23 110.79 1014.83 107.87 1014.83 103.58V66.41C1014.83 61.67 1014.08 57.6 1012.59 54.19C1011.1 50.79 1009.01 47.98 1006.34 45.76C1003.66 43.54 1000.45 41.92 996.7 40.88C992.95 39.85 988.86 39.33 984.42 39.33H959.18C957.96 41.09 956.92 43 956.08 45.07C955.24 47.13 954.55 49.26 954.02 51.44C953.49 53.62 953.08 55.82 952.82 58.04C952.55 60.26 952.42 62.4 952.42 64.46C952.42 69.2 952.99 73.43 954.14 77.14C955.29 80.85 956.66 84.12 958.27 86.95V115.75C958.27 122.63 958.96 128.66 960.33 133.82C961.71 138.98 963.56 143.46 965.89 147.24C968.22 151.03 970.96 154.18 974.09 156.7C977.23 159.22 980.53 161.23 984.01 162.72C987.49 164.21 991.07 165.26 994.74 165.88C998.41 166.49 1001.97 166.8 1005.41 166.8C1008.55 166.8 1011.3 166.59 1013.67 166.17C1016.04 165.75 1018.11 165.23 1019.87 164.62C1021.63 164.01 1023.14 163.3 1024.4 162.5C1025.66 161.7 1028.64 160.07 1033.64 155.07C1032.8 154.23 1038.1 152.99 1037.64 152.07C1037.18 151.15 1040.64 144.91 1040.64 144.07C1040.64 141.55 1026.33 151.09 1028.93 151.09C1031.38 156.37 1035.03 160.31 1039.89 162.91C1044.75 165.51 1050 166.81 1055.66 166.81C1060.09 166.81 1064.21 166.16 1067.99 164.86C1071.78 163.56 1075.48 162.43 1080.63 158.08C1086.45 153.16 1089.92 145.8 1090.63 144.08C1094.21 135.35 1090.63 138.89 1090.63 133.08C1090.63 132.62 1086.63 132.3 1086.63 131.42C1086.63 130.54 1088.71 117.69 1088.63 117.08C1084.63 119.08 1081.4 117.62 1079.63 114.08H1079.64Z" fill="#090909"/>
<path d="M1202.85 74.9595C1199.99 67.2895 1196 60.7094 1190.89 55.2195C1185.78 49.7295 1179.73 45.4895 1172.75 42.5195C1165.77 39.5495 1158.12 38.0594 1149.81 38.0594C1144.09 38.0594 1139 38.7094 1134.53 40.0094C1130.07 41.3094 1126.27 42.7195 1123.14 44.2395C1122.53 43.8595 1122.07 43.3794 1121.77 42.8094C1121.46 42.2394 1121.31 41.7195 1121.31 41.2695C1121.31 40.1295 1122.07 39.0994 1123.6 38.1794C1125.12 37.2594 1127.09 36.4495 1129.49 35.7195C1131.89 34.9995 1134.62 34.3895 1137.67 33.8895C1140.72 33.3895 1143.81 33.0695 1146.94 32.9194V22.7394C1146.94 18.6994 1146.04 15.2394 1144.25 12.3794C1142.46 9.51945 1140.09 7.18945 1137.16 5.39945C1134.22 3.60945 1130.87 2.28945 1127.09 1.44945C1123.31 0.609448 1119.44 0.189453 1115.47 0.189453C1110.05 0.189453 1104.77 0.899448 1099.62 2.30945C1094.47 3.71945 1090.14 5.45945 1086.63 7.51945V138.089C1086.63 141.829 1087.39 145.129 1088.92 147.989C1090.45 150.849 1092.5 153.349 1095.1 155.489C1097.69 157.629 1100.72 159.419 1104.2 160.869C1107.67 162.319 1111.37 163.479 1115.3 164.359C1119.23 165.239 1123.23 165.869 1127.32 166.249C1131.4 166.629 1135.39 166.819 1139.28 166.819C1148.89 166.819 1157.84 165.559 1166.11 163.039C1174.39 160.519 1181.56 156.589 1187.62 151.249C1193.68 145.909 1198.45 139.059 1201.92 130.709C1205.39 122.359 1207.13 112.309 1207.13 100.559C1207.13 91.1795 1205.7 82.6494 1202.84 74.9794L1202.85 74.9595ZM1149.47 99.3895C1149.47 102.819 1149.41 105.719 1149.3 108.089C1149.19 110.459 1148.94 112.399 1148.56 113.929C1148.18 115.459 1147.7 116.449 1147.13 116.899C1146.56 117.359 1145.89 117.589 1145.13 117.589C1144.44 117.589 1143.89 117.479 1143.47 117.249C1143.05 117.019 1142.69 116.749 1142.38 116.449C1142.46 115.229 1142.57 114.089 1142.72 113.019C1142.87 111.949 1142.99 110.749 1143.06 109.419C1143.14 108.089 1143.21 106.519 1143.29 104.729C1143.37 102.939 1143.4 100.779 1143.4 98.2695V82.9395C1143.93 82.4095 1144.73 82.1395 1145.8 82.1395C1147.25 82.1395 1148.22 82.5795 1148.72 83.4595C1149.22 84.3395 1149.46 85.7694 1149.46 87.7495V99.4194L1149.47 99.3895Z" fill="#090909"/>
</svg>
