<svg width="24" height="24" viewBox="0 0 24 24" fill="none" xmlns="http://www.w3.org/2000/svg">
<g clip-path="url(#clip0_2393_12869)">
<rect width="24" height="24" fill="#73EF5F"/>
<path d="M12.892 2.91208L7.68477 8.05659C7.33699 8.40018 7.13961 8.87377 7.13961 9.36594V18.6428C7.13961 19.6642 7.98555 20.5 9.01948 20.5H17.4789C18.2308 20.5 18.9076 20.0543 19.2084 19.3764L22.2726 12.3096C23.0621 10.471 21.6992 8.42804 19.6783 8.42804H14.3677L15.2606 4.17499C15.3546 3.71069 15.2136 3.23709 14.8753 2.90279C14.3207 2.3642 13.4372 2.3642 12.892 2.91208ZM3.37987 20.5C4.4138 20.5 5.25974 19.6642 5.25974 18.6428V11.2139C5.25974 10.1924 4.4138 9.35665 3.37987 9.35665C2.34594 9.35665 1.5 10.1924 1.5 11.2139V18.6428C1.5 19.6642 2.34594 20.5 3.37987 20.5Z" fill="white"/>
</g>
<defs>
<clipPath id="clip0_2393_12869">
<rect width="24" height="24" fill="white"/>
</clipPath>
</defs>
</svg>
