<svg width="422" height="185" viewBox="0 0 422 185" fill="none" xmlns="http://www.w3.org/2000/svg">
<g filter="url(#filter0_d_1084_3971)">
<path d="M84.7702 12.7213C87.0502 10.7913 89.6302 9.09133 92.4902 7.64133C95.3402 6.19133 98.3602 4.98133 101.52 4.01133C104.68 3.04133 107.94 2.32133 111.28 1.83133C114.62 1.35133 117.88 1.11133 121.04 1.11133C125.96 1.11133 130.78 1.57133 135.48 2.49133C140.18 3.41133 144.36 4.97133 148.01 7.17133C151.66 9.37133 154.58 12.3113 156.78 16.0013C158.98 19.6913 160.08 24.3113 160.08 29.8513V154.741C160.08 158.701 159.09 162.041 157.11 164.761C155.13 167.491 152.49 169.661 149.2 171.291C145.9 172.921 142.12 174.081 137.86 174.781C133.59 175.481 129.18 175.841 124.61 175.841C121.79 175.841 118.96 175.691 116.1 175.381C113.24 175.071 110.54 174.611 107.99 173.991C105.44 173.381 103.07 172.671 100.87 171.881C98.6702 171.091 96.7802 170.211 95.2002 169.241C91.4202 164.411 88.0102 159.741 84.9802 155.261C81.9502 150.781 79.1502 146.471 76.6102 142.341C74.0602 138.211 71.6902 134.281 69.4902 130.541C67.2902 126.801 65.1802 123.271 63.1602 119.921C61.6602 120.101 60.6502 120.561 60.1302 121.301C59.6002 122.051 59.3402 122.951 59.3402 124.001C59.3402 125.321 59.6902 126.621 60.4002 127.891C61.1002 129.171 62.0302 130.721 63.1702 132.571L79.6502 159.211V166.201C78.3302 167.081 76.6602 168.091 74.6402 169.231C72.6202 170.371 70.1302 171.451 67.1902 172.461C64.2402 173.471 60.8402 174.331 56.9702 175.031C53.1002 175.731 48.6602 176.081 43.6502 176.081C37.9302 176.081 32.6602 175.511 27.8302 174.371C22.9902 173.231 18.8202 171.541 15.3002 169.291C11.7802 167.051 9.06021 164.261 7.12021 160.921C5.19021 157.581 4.22021 153.711 4.22021 149.311V17.2013C4.22021 15.0013 5.19021 12.9113 7.12021 10.9413C9.05021 8.96133 11.6902 7.27133 15.0302 5.86133C18.3702 4.45133 22.2802 3.33133 26.7702 2.50133C31.2502 1.66133 36.0402 1.25133 41.1402 1.25133C46.9402 1.25133 52.3002 1.95133 57.2302 3.36133C62.1502 4.77133 65.8902 6.48133 68.4402 8.50133C70.3702 10.9613 72.4802 13.8913 74.7702 17.2713C77.0602 20.6613 79.4702 24.3913 82.0202 28.4813C84.5702 32.5713 87.2302 36.9213 90.0002 41.5413C92.7702 46.1613 95.6002 50.8813 98.5102 55.7213C99.3902 55.7213 100.25 55.4413 101.08 54.8613C101.92 54.2913 102.33 53.3413 102.33 52.0313C102.33 51.0613 101.98 49.9013 101.28 48.5413C100.58 47.1813 99.8302 45.8413 99.0402 44.5213L84.8002 19.9913V12.7413L84.7702 12.7213Z" fill="#090909"/>
<path d="M330.2 14.5508C307.64 14.5508 287.46 24.6608 273.89 40.5908C260.33 24.6708 240.14 14.5508 217.58 14.5508C176.74 14.5508 143.63 47.6608 143.63 88.5008C143.63 129.341 176.74 162.451 217.58 162.451C240.14 162.451 260.32 152.341 273.89 136.411C287.45 152.331 307.64 162.451 330.2 162.451C371.04 162.451 404.15 129.341 404.15 88.5008C404.15 47.6608 371.04 14.5508 330.2 14.5508Z" fill="white"/>
<path d="M330.2 0.890625C307.85 0.890625 287.46 9.27063 271.98 23.0506C272.61 22.4906 273.24 21.9406 273.89 21.4006C258.66 8.61063 239.03 0.890625 217.58 0.890625C169.19 0.890625 129.97 40.1106 129.97 88.5006C129.97 136.891 169.19 176.111 217.58 176.111C239.02 176.111 258.66 168.391 273.89 155.601C289.12 168.391 308.75 176.111 330.2 176.111C378.58 176.111 417.81 136.891 417.81 88.5006C417.81 40.1106 378.58 0.890625 330.2 0.890625ZM217.59 162.771C176.57 162.771 143.32 129.521 143.32 88.5006C143.32 47.4806 176.57 14.2306 217.59 14.2306C221.61 14.2306 225.55 14.5606 229.4 15.1706C208.16 20.9706 192.54 40.3806 192.54 63.4606C192.54 91.1106 214.95 113.521 242.6 113.521C243.81 113.521 245.01 113.471 246.2 113.381C249.83 125.661 256.09 136.811 264.31 146.201C251.55 156.551 235.29 162.751 217.58 162.751L217.59 162.771ZM266.51 148.631C266.57 148.691 266.63 148.751 266.68 148.811C266.62 148.751 266.56 148.691 266.51 148.631ZM330.2 162.771C289.18 162.771 255.93 129.521 255.93 88.5006C255.93 47.4806 289.18 14.2306 330.2 14.2306C334.22 14.2306 338.16 14.5606 342.01 15.1706C320.77 20.9706 305.16 40.3806 305.16 63.4606C305.16 91.1106 327.57 113.521 355.22 113.521C378.3 113.521 397.73 97.8906 403.52 76.6406C404.14 80.5006 404.47 84.4606 404.47 88.4906C404.47 129.511 371.22 162.761 330.21 162.761L330.2 162.771Z" fill="#090909"/>
</g>
<defs>
<filter id="filter0_d_1084_3971" x="0.220215" y="0.890625" width="421.59" height="183.221" filterUnits="userSpaceOnUse" color-interpolation-filters="sRGB">
<feFlood flood-opacity="0" result="BackgroundImageFix"/>
<feColorMatrix in="SourceAlpha" type="matrix" values="0 0 0 0 0 0 0 0 0 0 0 0 0 0 0 0 0 0 127 0" result="hardAlpha"/>
<feOffset dy="4"/>
<feGaussianBlur stdDeviation="2"/>
<feComposite in2="hardAlpha" operator="out"/>
<feColorMatrix type="matrix" values="0 0 0 0 0 0 0 0 0 0 0 0 0 0 0 0 0 0 0.25 0"/>
<feBlend mode="normal" in2="BackgroundImageFix" result="effect1_dropShadow_1084_3971"/>
<feBlend mode="normal" in="SourceGraphic" in2="effect1_dropShadow_1084_3971" result="shape"/>
</filter>
</defs>
</svg>
