<svg width="20" height="20" viewBox="0 0 20 20" fill="none" xmlns="http://www.w3.org/2000/svg">
<path d="M18.2 3.64374C18.0302 3.51995 17.8337 3.4379 17.6263 3.40424C17.4189 3.37058 17.2065 3.38625 17.0062 3.44999L4.79375 7.33749C4.50351 7.41887 4.19649 7.41887 3.90625 7.33749L2.6875 7.05624C2.51671 7.01341 2.33839 7.01015 2.16615 7.04671C1.99391 7.08328 1.8323 7.15869 1.69364 7.26721C1.55497 7.37573 1.44293 7.51448 1.36604 7.67289C1.28916 7.83129 1.24947 8.00517 1.25 8.18124V11.2C1.24973 11.3749 1.2896 11.5476 1.36653 11.7047C1.44346 11.8618 1.5554 11.9992 1.69375 12.1062C1.83198 12.2133 1.99245 12.2879 2.16336 12.3247C2.33426 12.3615 2.51123 12.3594 2.68125 12.3187L3.93125 12.0125C4.22149 11.9311 4.52851 11.9311 4.81875 12.0125L6.1875 12.5C6.0482 12.7961 5.97516 13.119 5.97349 13.4463C5.97182 13.7735 6.04154 14.0972 6.17781 14.3947C6.31407 14.6922 6.51359 14.9564 6.76246 15.1689C7.01133 15.3814 7.30355 15.537 7.61875 15.625L8.675 15.925C8.87762 15.9867 9.0882 16.0183 9.3 16.0187C9.67144 16.0159 10.0365 15.9221 10.3634 15.7456C10.6902 15.5691 10.9689 15.3153 11.175 15.0062L11.6687 14.2625L16.9937 15.9562C17.1249 15.9988 17.2621 16.0199 17.4 16.0187C17.5794 16.0205 17.7572 15.9861 17.923 15.9177C18.0888 15.8493 18.2392 15.7482 18.3651 15.6205C18.4911 15.4928 18.59 15.3411 18.6562 15.1744C18.7223 15.0076 18.7542 14.8293 18.75 14.65V4.72499C18.751 4.51399 18.7017 4.3058 18.606 4.11773C18.5103 3.92966 18.3711 3.76716 18.2 3.64374ZM10.1437 14.2812C10.0252 14.4615 9.8519 14.5989 9.64934 14.6732C9.44678 14.7475 9.22571 14.7547 9.01875 14.6937L7.9625 14.375C7.80972 14.3311 7.66933 14.2521 7.55255 14.1443C7.43577 14.0364 7.34584 13.9028 7.28996 13.754C7.23409 13.6051 7.2138 13.4453 7.23074 13.2873C7.24767 13.1292 7.30136 12.9773 7.3875 12.8437L10.4437 13.8187L10.1437 14.2812Z" fill="#090909"/>
</svg>
