<svg width="20" height="20" viewBox="0 0 20 20" fill="none" xmlns="http://www.w3.org/2000/svg">
<path d="M17.175 6.02495L16.675 3.54162C16.5833 3.09995 16.3 2.72495 15.9 2.51662C15.5083 2.31662 15.0583 2.30828 14.6583 2.49162C14.45 2.59162 14.225 2.66662 14.0083 2.72495C12.6083 3.09162 11.3417 2.55828 10.7083 2.19995C10.2667 1.94995 9.725 1.94995 9.28333 2.19995C8.65833 2.54995 7.39167 3.09162 5.98333 2.72495C5.75833 2.66662 5.54167 2.58328 5.33333 2.49162C4.94167 2.30828 4.48333 2.31662 4.09167 2.51662C3.68333 2.72495 3.4 3.09162 3.31667 3.54162L2.81667 6.02495C2.19167 9.13328 3.28333 12.375 5.65 14.475L9.025 17.4749C9.3 17.7166 9.65 17.8416 9.99167 17.8416C10.3333 17.8416 10.6833 17.7166 10.9583 17.4749L14.3333 14.475C16.7 12.3666 17.7917 9.13328 17.1667 6.02495H17.175ZM10.625 10.525V12.5C10.625 12.8416 10.3417 13.125 10 13.125C9.65833 13.125 9.375 12.8416 9.375 12.5V10.525C8.41667 10.25 7.70833 9.37495 7.70833 8.33328C7.70833 7.06662 8.73333 6.04162 10 6.04162C11.2667 6.04162 12.2917 7.06662 12.2917 8.33328C12.2917 9.37495 11.5833 10.25 10.625 10.525Z" fill="#090909"/>
<path d="M10 9.37496C10.5753 9.37496 11.0417 8.90859 11.0417 8.33329C11.0417 7.758 10.5753 7.29163 10 7.29163C9.4247 7.29163 8.95833 7.758 8.95833 8.33329C8.95833 8.90859 9.4247 9.37496 10 9.37496Z" fill="#090909"/>
</svg>
