<svg width="242" height="136" viewBox="0 0 242 136" fill="none" xmlns="http://www.w3.org/2000/svg">
<rect x="229.257" y="95.2354" width="53.2018" height="53.2018" rx="4" transform="rotate(147.808 229.257 95.2354)" fill="#F5F5F5"/>
<path d="M181.348 78.5832C181.71 78.6021 182.009 78.6825 182.244 78.8246C182.487 78.9671 182.699 79.1426 182.879 79.351C182.48 79.6851 182.275 79.9687 182.263 80.2017C182.258 80.3053 182.287 80.402 182.352 80.4919C182.417 80.5732 182.531 80.6181 182.695 80.6267C182.884 80.3336 183.123 80.0561 183.414 79.7943C183.713 79.5329 184.053 79.3083 184.435 79.1205C184.826 78.9331 185.253 78.791 185.717 78.6939C186.19 78.5888 186.689 78.5499 187.216 78.5773C187.837 78.6097 188.463 78.7245 189.093 78.9218C189.732 79.1195 190.3 79.4347 190.797 79.8673C191.293 80.3 191.688 80.8744 191.979 81.5906C192.271 82.3068 192.389 83.1958 192.334 84.2574C192.313 84.6459 192.282 85.0813 192.24 85.5637C192.206 86.0466 192.178 86.4952 192.156 86.9096C192.125 87.5051 192.165 88.0005 192.274 88.3956C192.383 88.7908 192.613 89.11 192.964 89.3533C192.969 89.4228 192.969 89.5093 192.963 89.6129C192.958 89.7079 192.955 89.7812 192.952 89.833C192.92 90.4458 192.797 90.9847 192.582 91.4495C192.368 91.9057 192.089 92.2849 191.744 92.5872C191.399 92.8895 191.003 93.1112 190.554 93.2522C190.114 93.3851 189.648 93.4387 189.156 93.4131C188.638 93.3861 188.146 93.2869 187.679 93.1155C187.22 92.9531 186.818 92.7028 186.472 92.3645C186.135 92.0181 185.872 91.5803 185.683 91.0512C185.504 90.5139 185.434 89.8655 185.473 89.1059C185.494 88.7002 185.527 88.3168 185.572 87.9556C185.625 87.5949 185.677 87.2601 185.728 86.9512C185.788 86.6341 185.842 86.3426 185.891 86.0768C185.939 85.8111 185.969 85.566 185.981 85.3416C186.002 84.9273 185.97 84.6443 185.882 84.4926C185.804 84.3327 185.666 84.2476 185.467 84.2373C185.338 84.2305 185.215 84.2588 185.099 84.322L185.158 86.4411C185.101 86.6978 185.048 86.959 185 87.2248C184.961 87.4824 184.926 87.7273 184.897 87.9594C184.867 88.1916 184.843 88.4024 184.825 88.5918C184.806 88.7812 184.794 88.9364 184.788 89.0572C184.753 89.7305 184.788 90.2906 184.895 90.7375C185.01 91.1849 185.146 91.5728 185.302 91.9011C184.901 92.2784 184.388 92.5719 183.763 92.7816C183.146 92.9832 182.45 93.0638 181.673 93.0233C181.285 93.0031 180.89 92.9263 180.491 92.7929C180.099 92.66 179.746 92.4728 179.429 92.2313C179.122 91.9817 178.874 91.6831 178.684 91.3357C178.495 90.9797 178.413 90.5686 178.437 90.1025L178.763 83.8361C178.523 83.4601 178.35 83.04 178.245 82.5758C178.148 82.1121 178.112 81.6299 178.138 81.1293C178.16 80.715 178.244 80.2607 178.391 79.7663C178.547 79.2725 178.764 78.8381 179.043 78.4631L181.348 78.5832Z" fill="#E7E6E6"/>
<path d="M200.178 94.156C199.169 94.1034 198.227 93.8986 197.354 93.5416C196.49 93.185 195.747 92.6746 195.123 92.0103C194.509 91.3465 194.036 90.5343 193.705 89.5737C193.375 88.6131 193.242 87.5027 193.308 86.2425C193.367 85.1032 193.598 84.0853 193.999 83.1888C194.401 82.2837 194.938 81.5241 195.611 80.91C196.283 80.2959 197.073 79.8394 197.98 79.5405C198.887 79.2415 199.88 79.1201 200.959 79.1763C202.038 79.2325 203.012 79.4694 203.882 79.8868C204.751 80.3043 205.484 80.8661 206.079 81.5721C206.683 82.27 207.133 83.094 207.43 84.0442C207.736 84.9862 207.86 86.0096 207.802 87.1144C207.743 88.2537 207.525 89.2723 207.15 90.1702C206.774 91.068 206.259 91.8244 205.604 92.4394C204.949 93.0457 204.164 93.4982 203.248 93.7966C202.332 94.0951 201.309 94.2149 200.178 94.156ZM200.159 88.7934C200.216 88.857 200.306 88.8919 200.426 88.8982C200.59 88.9067 200.701 88.8649 200.757 88.7726C200.823 88.6722 200.862 88.5098 200.874 88.2854L200.97 86.434C200.99 86.0455 200.999 85.7171 200.996 85.4486C201.001 85.1806 200.986 84.9592 200.952 84.7843C200.918 84.6094 200.868 84.4943 200.801 84.4389C200.744 84.384 200.672 84.3543 200.585 84.3498C200.508 84.3457 200.442 84.3553 200.389 84.3785C200.345 84.4021 200.304 84.4303 200.268 84.463C200.269 84.6016 200.276 84.7317 200.287 84.8535C200.298 84.9752 200.303 85.114 200.304 85.2698C200.305 85.417 200.304 85.5944 200.302 85.802C200.3 86.0009 200.292 86.2428 200.277 86.5277L200.159 88.7934Z" fill="#E7E6E6"/>
<path d="M98.9104 35.122C99.8799 32.7517 102.38 31.3871 104.898 31.8539L108.393 32.5017C109.907 32.7824 111.469 32.4037 112.687 31.4607L115.497 29.2845C117.522 27.7165 120.369 27.7848 122.317 29.448L125.019 31.7564C126.19 32.7567 127.733 33.2099 129.259 33.0021L132.781 32.5225C135.318 32.177 137.75 33.6598 138.605 36.0739L139.791 39.4243C140.305 40.8762 141.414 42.0397 142.84 42.6228L146.129 43.9684C148.5 44.938 149.864 47.4379 149.398 49.956L148.75 53.4508C148.469 54.9651 148.848 56.5274 149.791 57.7451L151.967 60.5553C153.535 62.5801 153.467 65.4274 151.803 67.3747L149.495 70.0774C148.495 71.2485 148.042 72.7908 148.249 74.3169L148.729 77.8387C149.074 80.3762 147.592 82.8079 145.178 83.6627L141.827 84.8491C140.375 85.3632 139.212 86.4722 138.629 87.8978L137.283 91.1875C136.314 93.5578 133.814 94.9224 131.295 94.4556L127.801 93.8078C126.286 93.5271 124.724 93.9058 123.506 94.8488L120.696 97.025C118.671 98.593 115.824 98.5247 113.877 96.8615L111.174 94.5531C110.003 93.5528 108.461 93.0996 106.935 93.3074L103.413 93.787C100.875 94.1325 98.4436 92.6497 97.5888 90.2356L96.4024 86.8852C95.8883 85.4333 94.7793 84.2698 93.3537 83.6867L90.064 82.3411C87.6936 81.3715 86.3291 78.8716 86.7959 76.3535L87.4437 72.8587C87.7244 71.3444 87.3457 69.7822 86.4027 68.5644L84.2265 65.7542C82.6585 63.7294 82.7268 60.8821 84.39 58.9348L86.6984 56.2321C87.6987 55.061 88.1519 53.5187 87.9441 51.9926L87.4645 48.4708C87.119 45.9333 88.6018 43.5016 91.0159 42.6468L94.3663 41.4604C95.8182 40.9463 96.9817 39.8373 97.5648 38.4117L98.9104 35.122Z" fill="#F5F5F5"/>
<path d="M95.6098 77.7715C94.8288 77.9808 94.1588 77.9394 93.6 77.6473C93.0393 77.348 92.6407 76.7572 92.4043 75.8749L89.7883 66.1119C89.7108 65.8226 89.7955 65.517 90.0425 65.195C90.2968 64.8711 90.6538 64.5546 91.1135 64.2454C91.5732 63.9361 92.1087 63.6493 92.7199 63.3847C93.3292 63.113 93.9593 62.8899 94.6101 62.7155C95.76 62.4074 96.8464 62.2674 97.8693 62.2956C98.8995 62.3219 99.8376 62.5395 100.683 62.9484C101.529 63.3573 102.263 63.9706 102.886 64.7883C103.515 65.604 104.001 66.6519 104.344 67.932C104.644 69.0529 104.727 70.0967 104.59 71.0633C104.461 72.028 104.134 72.9026 103.607 73.6869C103.086 74.4621 102.383 75.135 101.497 75.7056C100.61 76.269 99.562 76.7125 98.3543 77.0361L95.6098 77.7715ZM97.6475 69.1915C97.5545 68.8444 97.4678 68.5498 97.3875 68.3078C97.3052 68.0585 97.2237 67.8556 97.143 67.699C97.0661 67.5568 96.9884 67.4691 96.9097 67.4359C96.8383 67.4008 96.7628 67.3939 96.6833 67.4152C96.6037 67.4365 96.5461 67.4675 96.5105 67.508C96.4729 67.5413 96.4426 67.5727 96.4194 67.6022C96.4616 67.7304 96.5053 67.8504 96.5508 67.9623C96.5943 68.0669 96.6391 68.1905 96.6851 68.3332C96.7364 68.4668 96.7908 68.6266 96.8484 68.8127C96.9041 68.9915 96.9678 69.2147 97.0395 69.4823L97.2284 70.1874C97.3001 70.455 97.3576 70.6838 97.4007 70.8737C97.4419 71.0565 97.4747 71.2221 97.499 71.3706C97.5285 71.5099 97.5516 71.6394 97.5681 71.759C97.5827 71.8713 97.6039 71.9936 97.6315 72.1257C97.6663 72.1396 97.7092 72.1553 97.7603 72.1726C97.8095 72.1826 97.8739 72.177 97.9535 72.1557C98.033 72.1344 98.0949 72.0906 98.1392 72.0245C98.1908 71.9565 98.2143 71.8416 98.2097 71.6801C98.2013 71.5041 98.1714 71.2912 98.12 71.0414C98.0666 70.7844 97.9934 70.4824 97.9004 70.1352L97.6475 69.1915Z" fill="#E7E6E6"/>
<path d="M112.847 73.5015C112.001 73.7282 111.171 73.8112 110.356 73.7504C109.549 73.6877 108.8 73.4661 108.108 73.0854C107.425 72.7028 106.818 72.16 106.289 71.457C105.759 70.754 105.353 69.8746 105.07 68.8187C104.814 67.8641 104.732 66.9638 104.823 66.1178C104.912 65.2645 105.152 64.495 105.542 63.8092C105.931 63.1234 106.46 62.5361 107.127 62.0473C107.795 61.5584 108.58 61.1929 109.484 60.9506C110.388 60.7084 111.254 60.643 112.083 60.7544C112.911 60.8657 113.664 61.1328 114.344 61.5554C115.028 61.9688 115.619 62.5273 116.118 63.2309C116.622 63.9252 116.998 64.7352 117.246 65.6609C117.502 66.6155 117.595 67.5129 117.525 68.3531C117.456 69.1933 117.234 69.9544 116.858 70.6363C116.481 71.311 115.955 71.8937 115.28 72.3845C114.606 72.8753 113.795 73.2476 112.847 73.5015ZM111.397 69.0882C111.462 69.1253 111.544 69.1302 111.646 69.1031C111.783 69.0663 111.863 69.0023 111.885 68.9111C111.912 68.8108 111.901 68.6666 111.85 68.4786L111.435 66.9273C111.347 66.6019 111.267 66.329 111.192 66.1087C111.125 65.8865 111.054 65.7079 110.979 65.5729C110.904 65.438 110.832 65.3566 110.762 65.3287C110.7 65.2988 110.633 65.2936 110.56 65.313C110.495 65.3304 110.444 65.3558 110.406 65.3891C110.376 65.4205 110.35 65.4545 110.329 65.4912C110.367 65.605 110.407 65.7106 110.449 65.8079C110.49 65.9053 110.532 66.0181 110.574 66.1463C110.614 66.2674 110.661 66.4137 110.715 66.5853C110.767 66.7497 110.825 66.9512 110.889 67.1899L111.397 69.0882Z" fill="#E7E6E6"/>
<path d="M118.443 58.9339C118.747 58.8525 119.014 58.8389 119.246 58.8931C119.485 58.9454 119.706 59.0334 119.91 59.1571C119.671 59.5389 119.578 59.8274 119.63 60.0226C119.653 60.1094 119.703 60.1812 119.781 60.238C119.856 60.2876 119.962 60.294 120.1 60.2572C120.176 59.9653 120.3 59.6727 120.469 59.3792C120.646 59.0839 120.866 58.8078 121.131 58.5509C121.402 58.292 121.716 58.0607 122.072 57.8567C122.434 57.6436 122.835 57.4779 123.276 57.3597C123.797 57.2202 124.343 57.1474 124.915 57.1415C125.495 57.1335 126.047 57.2414 126.572 57.465C127.097 57.6886 127.575 58.0565 128.007 58.5687C128.439 59.0808 128.774 59.7816 129.012 60.6712C129.099 60.9966 129.19 61.3637 129.284 61.7726C129.385 62.1795 129.482 62.5565 129.575 62.9037C129.709 63.4027 129.874 63.8004 130.069 64.0967C130.265 64.3931 130.54 64.5946 130.894 64.7012C130.917 64.7572 130.94 64.8285 130.963 64.9153C130.984 64.9948 131.001 65.0563 131.012 65.0997C131.15 65.6132 131.192 66.0901 131.14 66.5305C131.086 66.9636 130.957 67.3508 130.754 67.692C130.551 68.0332 130.283 68.3219 129.951 68.5582C129.624 68.7852 129.255 68.954 128.843 69.0644C128.409 69.1807 127.976 69.2307 127.546 69.2143C127.124 69.2032 126.726 69.1046 126.35 68.9184C125.98 68.723 125.646 68.4326 125.349 68.0472C125.058 67.6525 124.826 67.137 124.656 66.5006C124.565 66.1607 124.49 65.836 124.43 65.5264C124.377 65.2149 124.331 64.9252 124.29 64.6571C124.254 64.3798 124.221 64.1252 124.19 63.8932C124.159 63.6613 124.118 63.4513 124.068 63.2633C123.975 62.9162 123.872 62.6918 123.759 62.5902C123.652 62.4794 123.515 62.4463 123.349 62.4908C123.241 62.5199 123.147 62.5759 123.069 62.659L123.683 64.3894C123.705 64.616 123.732 64.8453 123.763 65.0773C123.799 65.3 123.837 65.511 123.874 65.7101C123.912 65.9093 123.949 66.0893 123.984 66.2504C124.02 66.4114 124.051 66.5426 124.078 66.6438C124.229 67.2079 124.408 67.6598 124.616 67.9996C124.83 68.3374 125.046 68.6207 125.262 68.8495C125.033 69.2675 124.689 69.6465 124.23 69.9865C123.776 70.3174 123.223 70.5701 122.573 70.7445C122.247 70.8317 121.902 70.8738 121.537 70.8709C121.179 70.866 120.837 70.8064 120.512 70.692C120.192 70.5684 119.908 70.3889 119.659 70.1533C119.408 69.9106 119.23 69.5939 119.125 69.2034L117.718 63.9531C117.42 63.7075 117.165 63.4076 116.954 63.0533C116.75 62.6972 116.592 62.3094 116.479 61.8899C116.386 61.5428 116.334 61.146 116.323 60.6994C116.319 60.2509 116.382 59.8348 116.512 59.4513L118.443 58.9339Z" fill="#E7E6E6"/>
<path d="M131.254 56.9776C131.138 57.094 131.002 57.1925 130.845 57.2733C130.696 57.352 130.502 57.4234 130.263 57.4874C129.981 57.5629 129.696 57.585 129.409 57.5535C129.121 57.522 128.851 57.4394 128.598 57.3056C128.351 57.1627 128.133 56.9729 127.946 56.7363C127.759 56.4998 127.62 56.2151 127.531 55.8825C127.419 55.463 127.389 55.0758 127.441 54.7208C127.5 54.3638 127.62 54.0449 127.801 53.764C127.988 53.4812 128.23 53.2419 128.527 53.0462C128.823 52.8505 129.159 52.7023 129.535 52.6016C130.013 52.4737 130.459 52.4471 130.874 52.5218C131.29 52.5966 131.665 52.7519 131.999 52.9878C132.332 53.2165 132.617 53.5159 132.856 53.886C133.095 54.2561 133.276 54.6726 133.4 55.1354C133.569 55.7646 133.622 56.3394 133.56 56.8598C133.505 57.3783 133.367 57.8338 133.147 58.2261C132.927 58.6185 132.642 58.9465 132.294 59.2103C131.945 59.4668 131.564 59.6503 131.151 59.7607C130.884 59.8324 130.627 59.8703 130.38 59.8745C130.14 59.8767 129.921 59.8422 129.724 59.7711C129.532 59.6908 129.366 59.5765 129.225 59.4281C129.083 59.2725 128.981 59.079 128.919 58.8475C128.88 58.7029 128.863 58.5525 128.867 58.3962C128.87 58.2327 128.901 58.0887 128.961 57.9642C129.096 58.0055 129.276 58.0424 129.502 58.075C129.735 58.1055 130.029 58.0734 130.383 57.9784C130.716 57.8893 130.985 57.7785 131.189 57.6461C131.399 57.5046 131.483 57.3542 131.441 57.1951C131.423 57.1301 131.395 57.0833 131.357 57.0549C131.318 57.0265 131.284 57.0007 131.254 56.9776Z" fill="#E7E6E6"/>
<path d="M136.293 59.5108L136.966 59.3306C137.154 59.2802 137.282 59.2108 137.352 59.1225C137.421 59.0341 137.441 58.9357 137.412 58.8273C137.401 58.7839 137.382 58.7424 137.356 58.7029L134.926 59.354C134.776 59.1149 134.638 58.8458 134.512 58.5464C134.39 58.2379 134.286 57.9209 134.199 57.5955C134.143 57.3858 134.089 57.1442 134.039 56.8708C133.995 56.5883 133.97 56.3508 133.965 56.1584C134.218 55.8889 134.464 55.606 134.702 55.3096C134.948 55.0113 135.163 54.7443 135.348 54.5088C135.373 54.3394 135.395 54.1202 135.416 53.8511C135.437 53.582 135.455 53.302 135.47 53.0111C135.485 52.7203 135.5 52.4413 135.513 52.1741C135.525 51.8997 135.537 51.6715 135.551 51.4897C135.767 51.3698 136.06 51.2369 136.432 51.0908C136.804 50.9447 137.188 50.8183 137.586 50.7118C137.897 50.6284 138.213 50.5632 138.534 50.516C138.862 50.4669 139.224 50.4318 139.622 50.4106L140.334 53.0683L142.21 52.5654C142.505 52.8274 142.757 53.1437 142.965 53.5143C143.178 53.8758 143.337 54.2518 143.441 54.6423C143.54 55.0111 143.591 55.4198 143.595 55.8683C143.605 56.3077 143.545 56.7073 143.417 57.0672L141.865 57.4829L142.304 59.1209C142.438 59.6199 142.635 59.9507 142.896 60.1134C143.154 60.2689 143.468 60.2972 143.837 60.1984L144.303 60.0734C144.419 60.2749 144.532 60.4927 144.641 60.727C144.758 60.9593 144.849 61.1984 144.915 61.4443C145.184 62.4495 145.075 63.3004 144.587 63.9969C144.1 64.6934 143.274 65.1976 142.109 65.5096C141.524 65.6666 140.967 65.7304 140.44 65.7011C139.92 65.6699 139.443 65.5381 139.009 65.3057C138.574 65.0733 138.198 64.74 137.88 64.3058C137.56 63.8645 137.311 63.3111 137.133 62.6458L136.293 59.5108Z" fill="#E7E6E6"/>
<rect x="19.425" y="49.8271" width="81.824" height="47.2806" rx="23.6403" transform="rotate(23.7232 19.425 49.8271)" fill="#F5F5F5"/>
<path d="M34.1208 78.5274C34.0069 78.4773 33.895 78.4325 33.7851 78.3927C33.6784 78.3458 33.576 78.318 33.478 78.3092C33.3903 78.2963 33.3105 78.304 33.2386 78.3324C33.1667 78.3608 33.1102 78.4216 33.0692 78.5149C33.0629 78.5293 33.0534 78.5508 33.0408 78.5795C33.0313 78.6011 33.027 78.6206 33.0278 78.6381C33.1519 78.6841 33.2567 78.7258 33.3421 78.7633C33.4275 78.8009 33.5129 78.8384 33.5983 78.8759C33.9541 79.0323 34.3079 79.2221 34.6599 79.4452C35.0149 79.6612 35.34 79.9069 35.6351 80.1821C35.9372 80.4605 36.2007 80.769 36.4255 81.1076C36.6502 81.4463 36.8134 81.8092 36.9149 82.1964C37.0236 82.5868 37.0603 83.0055 37.0251 83.4526C36.99 83.8996 36.8636 84.3709 36.6459 84.8662C36.3178 85.6128 35.8955 86.2067 35.379 86.6478C34.8728 87.0849 34.2937 87.3786 33.6418 87.529C32.9899 87.6793 32.2794 87.6926 31.5103 87.5687C30.738 87.452 29.9284 87.2076 29.0816 86.8355C28.2988 86.4915 27.6101 86.1074 27.0153 85.6833C26.4277 85.2623 25.9626 84.8138 25.6199 84.3377C25.2772 83.8617 25.0677 83.3628 24.9914 82.841C24.9182 82.312 25.0046 81.7676 25.2507 81.2076C25.3422 80.9994 25.4538 80.8129 25.5857 80.6482C25.7207 80.4762 25.862 80.3285 26.0097 80.2049C26.1574 80.0814 26.3063 79.9841 26.4564 79.913C26.6096 79.8347 26.7503 79.7852 26.8783 79.7644C26.986 79.983 27.1419 80.2271 27.346 80.4967C27.5605 80.7622 27.8168 81.0291 28.115 81.2972C28.4203 81.5684 28.7636 81.8306 29.1448 82.0837C29.526 82.3369 29.9478 82.5651 30.4104 82.7684C30.6239 82.8622 30.7717 82.8929 30.8539 82.8605C30.9432 82.8312 31.0099 82.7663 31.054 82.6658C31.0793 82.6084 31.0938 82.5463 31.0977 82.4794C31.0163 82.4522 30.9542 82.4292 30.9115 82.4105C30.8688 82.3917 30.8297 82.3745 30.7941 82.3589C30.0967 82.0524 29.4665 81.6898 28.9034 81.271C28.3474 80.8554 27.9024 80.39 27.5684 79.8749C27.2375 79.3526 27.039 78.79 26.9728 78.1871C26.9067 77.5841 27.0235 76.9416 27.3232 76.2596C27.5724 75.6925 27.9229 75.2041 28.3746 74.7945C28.8294 74.3777 29.3733 74.0771 30.0062 73.8927C30.6391 73.7083 31.3548 73.6544 32.1531 73.7312C32.9514 73.8079 33.8203 74.0527 34.7596 74.4655C35.2221 74.6687 35.6543 74.8929 36.056 75.138C36.4609 75.3758 36.8278 75.6228 37.1569 75.8787C37.493 76.1378 37.7892 76.4007 38.0456 76.6675C38.3122 76.9303 38.5329 77.1815 38.7078 77.4211C38.7127 77.6031 38.6742 77.826 38.5922 78.0898C38.5174 78.3567 38.4326 78.5978 38.338 78.8132C38.1203 79.3085 37.8678 79.6901 37.5803 79.9577C37.2929 80.2254 37.0121 80.4104 36.7379 80.5126C36.6152 80.3474 36.4645 80.1783 36.2857 80.0055C36.1101 79.8256 35.9084 79.647 35.6806 79.4698C35.46 79.2958 35.2152 79.1282 34.9463 78.9673C34.6877 78.8022 34.4125 78.6556 34.1208 78.5274Z" fill="#E7E6E6"/>
<path d="M39.0185 82.684L39.6803 82.9748C39.8653 83.0561 40.0147 83.0832 40.1285 83.0562C40.2423 83.0291 40.3229 82.9617 40.3702 82.854C40.3891 82.8109 40.4009 82.7647 40.4056 82.7154L38.0146 81.6647C38.0499 81.3718 38.114 81.0617 38.207 80.7342C38.3102 80.4027 38.4328 80.0754 38.5748 79.7524C38.6663 79.5442 38.7811 79.312 38.9191 79.0557C39.0675 78.7954 39.2024 78.5849 39.324 78.4242C39.7049 78.3689 40.0886 78.2977 40.475 78.2105C40.8685 78.1265 41.217 78.0484 41.5204 77.9761C41.6507 77.8535 41.8122 77.6889 42.0048 77.4824C42.1975 77.2758 42.3949 77.0585 42.597 76.8304C42.7991 76.6023 42.993 76.3834 43.1785 76.1737C43.3672 75.9569 43.5263 75.7784 43.6558 75.6383C43.9087 75.6809 44.2333 75.7636 44.6293 75.8862C45.0254 76.0089 45.4192 76.1562 45.8105 76.3282C46.1165 76.4627 46.4146 76.6151 46.7049 76.7855C47.0022 76.959 47.3185 77.1665 47.6539 77.4081L46.4945 80.0464L48.3411 80.8579C48.4087 81.2644 48.4055 81.687 48.3316 82.1257C48.268 82.5602 48.151 82.9714 47.9806 83.359C47.8197 83.7251 47.5944 84.0929 47.3047 84.4624C47.0253 84.8278 46.7161 85.116 46.3772 85.3268L44.8508 84.656L44.1363 86.282C43.9186 86.7774 43.862 87.1765 43.9666 87.4795C44.0744 87.7752 44.3097 88.0028 44.6727 88.1623L45.1317 88.364C45.0939 88.6044 45.0428 88.856 44.9782 89.1189C44.9208 89.3849 44.8384 89.6399 44.7312 89.884C44.2926 90.8819 43.6487 91.5068 42.7993 91.7588C41.9499 92.0108 40.9523 91.8851 39.8066 91.3816C39.2302 91.1283 38.7383 90.8179 38.3309 90.4504C37.9307 90.0861 37.6308 89.6673 37.4312 89.1942C37.2315 88.721 37.1449 88.2033 37.1713 87.641C37.2008 87.0715 37.3607 86.4566 37.6509 85.7961L39.0185 82.684Z" fill="#E7E6E6"/>
<path d="M49.6614 95.8793C48.8288 95.5134 48.1028 95.0402 47.4835 94.4597C46.8712 93.8823 46.4098 93.2127 46.0993 92.4509C45.7959 91.6923 45.6595 90.853 45.6903 89.9329C45.7211 89.0128 45.9668 88.0287 46.4274 86.9805C46.8438 86.0329 47.3651 85.2427 47.9913 84.61C48.6206 83.97 49.3169 83.4965 50.0801 83.1895C50.8433 82.8825 51.6544 82.7465 52.5136 82.7814C53.3728 82.8164 54.2471 83.0293 55.1366 83.4202C56.0261 83.8111 56.7695 84.3219 57.3668 84.9527C57.9641 85.5835 58.3995 86.2931 58.6729 87.0813C58.9566 87.8655 59.0704 88.7078 59.0143 89.6082C58.9685 90.5046 58.7437 91.4122 58.3398 92.3311C57.9234 93.2788 57.4128 94.0736 56.808 94.7158C56.2031 95.3579 55.5262 95.8356 54.7773 96.1489C54.0314 96.455 53.2254 96.589 52.3591 96.5509C51.4929 96.5128 50.5936 96.289 49.6614 95.8793ZM51.3703 91.324C51.398 91.3962 51.4617 91.4542 51.5613 91.4979C51.6966 91.5573 51.8029 91.557 51.8803 91.4967C51.9679 91.4325 52.0528 91.307 52.1348 91.1204L52.8115 89.5805C52.9535 89.2574 53.0662 88.9815 53.1498 88.7527C53.2405 88.527 53.2996 88.3346 53.3271 88.1754C53.3546 88.0162 53.3494 87.9025 53.3114 87.8344C53.2805 87.7694 53.2295 87.7213 53.1583 87.6901C53.0943 87.6619 53.0362 87.6492 52.984 87.652C52.939 87.6579 52.8959 87.669 52.8548 87.6852C52.8115 87.8032 52.7748 87.9155 52.7449 88.0223C52.7149 88.129 52.6751 88.2486 52.6255 88.381C52.5789 88.5061 52.5214 88.6564 52.4528 88.8318C52.3873 89.0001 52.3026 89.2027 52.1985 89.4396L51.3703 91.324Z" fill="#E7E6E6"/>
<path d="M63.317 87.4391C63.6159 87.5704 63.8768 87.7108 64.0998 87.8602C64.3228 88.0096 64.4973 88.1633 64.6231 88.3214C64.0952 88.4406 63.7132 88.5854 63.4771 88.7557C63.3894 88.8199 63.325 88.8987 63.284 88.9921C63.2462 89.0782 63.238 89.1645 63.2594 89.251C63.2879 89.3407 63.3733 89.4167 63.5157 89.4793C63.8671 89.2397 64.2175 89.0511 64.5667 88.9133C64.9191 88.7684 65.281 88.679 65.6524 88.6453C66.027 88.6043 66.4131 88.6241 66.8107 88.7046C67.2186 88.7811 67.6467 88.9178 68.0951 89.1148C68.3726 89.2368 68.6802 89.4062 69.0179 89.6231C69.3658 89.836 69.7008 90.1074 70.0228 90.4373C70.3479 90.7601 70.636 91.1479 70.8869 91.6008C71.1482 92.0497 71.3273 92.5695 71.4242 93.1603C71.5243 93.7439 71.5218 94.4066 71.4166 95.1484C71.3113 95.8902 71.0584 96.7169 70.6577 97.6286C70.2445 98.5691 69.7473 99.3527 69.1661 99.9796C68.5882 100.599 67.9452 101.058 67.2373 101.355C66.5326 101.645 65.7732 101.769 64.9591 101.728C64.1552 101.683 63.3157 101.469 62.4404 101.084C62.0632 100.918 61.7493 100.763 61.4987 100.619C61.248 100.474 61.0416 100.345 60.8794 100.231C60.7205 100.11 60.5955 100.008 60.5045 99.9249C60.4167 99.8349 60.3507 99.763 60.3063 99.7093C60.2408 99.7233 60.189 99.7734 60.1512 99.8595C60.1039 99.9672 60.1036 100.074 60.1503 100.18C60.1939 100.294 60.29 100.413 60.4387 100.538C60.5945 100.667 60.8049 100.806 61.0698 100.957C61.3387 101.118 61.6712 101.298 62.0673 101.498L60.8086 104.363C60.6378 104.365 60.4438 104.352 60.2264 104.325C60.013 104.308 59.7901 104.275 59.5577 104.224C59.3221 104.18 59.0857 104.119 58.8486 104.041C58.6153 103.973 58.392 103.892 58.1785 103.798C57.6946 103.585 57.2739 103.345 56.9164 103.076C56.5558 102.815 56.2773 102.521 56.081 102.195C55.8887 101.879 55.782 101.533 55.7611 101.155C55.7402 100.778 55.8276 100.366 56.0232 99.9213L59.8326 91.2527C59.7517 90.8573 59.7414 90.446 59.8019 90.0186C59.8694 89.5943 59.9947 89.174 60.1777 88.7576C60.2534 88.5853 60.3481 88.4085 60.4617 88.2272C60.5683 88.0427 60.6906 87.8609 60.8288 87.6818C60.974 87.5058 61.1268 87.3417 61.2871 87.1894C61.4506 87.03 61.6219 86.8912 61.8012 86.773L63.317 87.4391ZM64.0154 96.5726C64.0431 96.6447 64.1068 96.7027 64.2064 96.7465C64.3416 96.8059 64.4479 96.8055 64.5253 96.7453C64.613 96.681 64.6978 96.5556 64.7799 96.3689L65.2626 95.2706C65.4045 94.9475 65.5173 94.6716 65.6009 94.4428C65.6915 94.2171 65.7506 94.0246 65.7782 93.8654C65.8057 93.7062 65.8004 93.5926 65.7624 93.5245C65.7315 93.4595 65.6805 93.4114 65.6094 93.3801C65.5453 93.352 65.4872 93.3393 65.435 93.3421C65.39 93.348 65.3469 93.359 65.3059 93.3752C65.2625 93.4932 65.2258 93.6056 65.1959 93.7123C65.166 93.8191 65.1262 93.9387 65.0765 94.071C65.03 94.1962 64.9724 94.3465 64.9038 94.5219C64.8384 94.6901 64.7536 94.8927 64.6495 95.1296L64.0154 96.5726Z" fill="#E7E6E6"/>
</svg>
