<svg width="24" height="24" viewBox="0 0 24 24" fill="none" xmlns="http://www.w3.org/2000/svg">
<g clip-path="url(#clip0_2393_12864)">
<rect width="24" height="24" fill="none"/>
<path d="M10.6054 21.5879L15.8044 16.4434C16.1523 16.0998 16.3497 15.6262 16.3497 15.1341V5.85722C16.3497 4.83575 15.5036 4 14.4694 4H6.01742C5.26529 4 4.58839 4.44573 4.29694 5.12362L1.23204 12.1904C0.432913 14.029 1.79613 16.072 3.81746 16.072H9.12932L8.23617 20.325C8.14216 20.7893 8.28318 21.2629 8.62164 21.5972C9.17633 22.1358 10.0601 22.1358 10.6054 21.5879ZM20.1197 4C19.0855 4 18.2394 4.83575 18.2394 5.85722V13.2861C18.2394 14.3076 19.0855 15.1433 20.1197 15.1433C21.1539 15.1433 22 14.3076 22 13.2861V5.85722C22 4.83575 21.1539 4 20.1197 4Z" fill="current"/>
</g>
<defs>
<clipPath id="clip0_2393_12864">
<rect width="24" height="24" fill="current"/>
</clipPath>
</defs>
</svg>
