<svg width="60" height="30" viewBox="0 0 60 30" fill="none" xmlns="http://www.w3.org/2000/svg">
<g clip-path="url(#clip0_480_2363)">
<path d="M6.13822 13.3647H0V5.99107C0 5.60455 0.133763 5.29236 0.386426 5.02477C0.639088 4.75717 0.966064 4.63824 1.35249 4.63824H2.71984V9.96035C2.71984 10.4063 2.94278 10.6442 3.40352 10.6442H6.13822V13.3796V13.3647ZM11.9197 19.6977L9.72009 21.6452L8.53109 19.9504L6.65841 17.2894L4.78573 19.9504L3.59673 21.6452L2.27397 21.0357C2.08075 20.9465 1.91727 20.8573 1.76864 20.7681C1.62002 20.6789 1.51598 20.5599 1.45653 20.4113C1.33763 20.114 1.39708 19.8018 1.62001 19.4599L1.97672 18.9544L3.49269 16.8137L3.73049 16.4717L5.3951 14.0932H7.96631L9.63091 16.4717L9.88358 16.8137L11.3847 18.9544L11.9495 19.6828L11.9197 19.6977ZM13.0047 10.4212H11.0131V13.3647H8.27843V4.63824H11.0131V7.68582H13.0047V10.4212Z" fill="#090909"/>
<path d="M14.3572 15.7135V12.9782H23.7949V15.7135H20.3914V18.4043H17.6567V15.7135H14.3572ZM14.7882 1.36766C15.0557 1.10007 15.3678 0.98114 15.7543 0.98114H23.7949V3.71652H17.8053C17.5675 3.71652 17.3891 3.82058 17.2851 4.04358C17.1811 4.2517 17.1216 4.48956 17.1216 4.72742V5.00988H23.3787V7.74526H17.1216V8.35478C17.1216 8.80076 17.3445 9.03862 17.8053 9.03862H23.7949V11.774H14.4018V2.33396C14.4018 1.94744 14.5355 1.63525 14.7882 1.36766Z" fill="#090909"/>
<path d="M25.1473 15.7136V12.9782H34.585V15.7136H31.1815V18.4044H28.4468V15.7136H25.1473ZM25.2217 11.551V5.96135C25.2217 5.57482 25.3554 5.24777 25.6081 4.99504C25.8607 4.72745 26.1729 4.60852 26.5593 4.60852H34.5553V7.2993H28.5954C28.3874 7.2993 28.2239 7.37363 28.105 7.50743C27.9861 7.65609 27.9266 7.83449 27.9118 8.07235C27.9118 8.28047 27.9861 8.45887 28.105 8.60753C28.2239 8.75619 28.3874 8.84539 28.5954 8.84539H34.5553V11.5362H25.2217V11.551Z" fill="#090909"/>
<path d="M36.116 30V23.3251C36.116 22.9386 36.2497 22.6264 36.5024 22.3588C36.7551 22.0912 37.0969 21.9425 37.4833 21.9425H42.0164C42.4771 21.9425 42.7149 21.7195 42.7149 21.2587V20.0842C42.7149 19.6234 42.4771 19.3855 42.0164 19.3855H36.116V16.6353H45.4496V24.6779H39.5492C39.1033 24.6779 38.8655 24.9158 38.8655 25.3766V26.551C38.8655 26.997 39.0885 27.2349 39.5492 27.2349H45.4496V29.9851H36.116V30ZM36.2349 15.7136V12.9782H45.6726V15.7136H36.2349ZM45.6874 10.555C45.6874 10.9415 45.5537 11.2537 45.301 11.5213C45.0335 11.7889 44.7065 11.9078 44.3201 11.9078H42.9676V9.7671H36.2795V7.03172H42.9676V6.58573C42.9676 6.13974 42.7447 5.90189 42.2839 5.90189H36.2795V3.1665H45.7023V10.5401L45.6874 10.555Z" fill="#090909"/>
<path d="M47.1885 13.3201V6.66006C47.1885 6.27354 47.3222 5.94648 47.5749 5.67889C47.8424 5.4113 48.1694 5.29237 48.5558 5.29237H48.8828L49.8786 5.2775C50.3393 5.2775 50.5771 5.05451 50.5771 4.59366V3.41923C50.5771 2.97324 50.3393 2.73538 49.8786 2.73538H47.1885V0H53.3267V8.04262H50.6217C50.1758 8.04262 49.938 8.26561 49.938 8.72646V9.90089C49.938 10.3617 50.161 10.5996 50.6217 10.5996H53.3267V13.335H47.1885V13.3201ZM52.6876 21.5857V14.108H55.4669V15.5055H57.2207V14.108H58.6178C59.0042 14.108 59.3312 14.2418 59.5987 14.5243C59.8662 14.7919 60.0148 15.1189 60.0148 15.5055V21.5857H52.7025H52.6876ZM54.2779 7.64123H57.1612V4.59366H59.8959V13.3201H57.1612V10.3766H54.2779V7.64123ZM57.2207 19.1774V17.9138H55.4669V19.1774H57.2207Z" fill="#090909"/>
</g>
<defs>
<clipPath id="clip0_480_2363">
<rect width="60" height="30" fill="white"/>
</clipPath>
</defs>
</svg>
