<svg width="20" height="20" viewBox="0 0 20 20" fill="none" xmlns="http://www.w3.org/2000/svg">
<path d="M17.5 7.49996V17.4937C17.5 17.9592 17.1293 18.3333 16.6722 18.3333H3.32783C2.87079 18.3333 2.5 17.9633 2.5 17.5068V2.49313C2.5 2.04605 2.87245 1.66663 3.33188 1.66663H11.6667V6.66663C11.6667 7.12686 12.0398 7.49996 12.5 7.49996H17.5ZM17.5 5.83329H13.3333V1.66928L17.5 5.83329ZM7.5 5.83329C7.03976 5.83329 6.66667 6.20639 6.66667 6.66663C6.66667 7.12686 7.03976 7.49996 7.5 7.49996H8.33333C8.79357 7.49996 9.16667 7.12686 9.16667 6.66663C9.16667 6.20639 8.79357 5.83329 8.33333 5.83329H7.5ZM7.5 9.16663C7.03976 9.16663 6.66667 9.53972 6.66667 9.99996C6.66667 10.4602 7.03976 10.8333 7.5 10.8333H12.5C12.9602 10.8333 13.3333 10.4602 13.3333 9.99996C13.3333 9.53972 12.9602 9.16663 12.5 9.16663H7.5ZM7.5 12.5C7.03976 12.5 6.66667 12.8731 6.66667 13.3333C6.66667 13.7935 7.03976 14.1666 7.5 14.1666H12.5C12.9602 14.1666 13.3333 13.7935 13.3333 13.3333C13.3333 12.8731 12.9602 12.5 12.5 12.5H7.5Z" fill="#090909"/>
</svg>
