<svg width="749" height="166" viewBox="0 0 749 166" fill="none" xmlns="http://www.w3.org/2000/svg">
<path d="M560.35 46.3887C543.29 46.3887 528.03 54.0387 517.77 66.0787C507.51 54.0387 492.25 46.3887 475.19 46.3887C444.31 46.3887 419.27 71.4287 419.27 102.309C419.27 133.189 444.31 158.229 475.19 158.229C492.25 158.229 507.51 150.579 517.77 138.539C528.03 150.579 543.29 158.229 560.35 158.229C591.23 158.229 616.27 133.189 616.27 102.309C616.27 71.4287 591.23 46.3887 560.35 46.3887Z" fill="white"/>
<path d="M731.41 55.9595C725.99 50.2395 719.48 45.7995 711.88 42.6295C704.28 39.4595 695.87 37.8695 686.65 37.8695C677.43 37.8695 669.02 39.3495 661.42 42.2995C653.82 45.2495 647.29 49.4895 641.84 55.0195C636.38 60.5495 632.14 67.2495 629.12 75.0995C627.55 79.1895 626.39 83.5395 625.64 88.1295V30.6395C625.64 25.8295 624.86 21.5795 623.29 17.8795C621.73 14.1795 619.55 11.0495 616.77 8.49953C613.98 5.94953 610.69 4.01954 606.87 2.71954C603.05 1.41954 598.94 0.769531 594.51 0.769531C590.47 0.769531 586.86 1.12954 583.7 1.85954C580.53 2.58954 577.67 3.57953 575.12 4.83953C572.56 6.09953 570.26 7.60954 568.2 9.35954C566.14 11.1195 564.23 13.0195 562.48 15.0795C563.01 16.2195 563.47 17.5795 563.85 19.1395C564.23 20.6995 564.55 22.3095 564.82 23.9495C565.09 25.5895 565.28 27.2695 565.39 28.9895C565.5 30.7095 565.56 32.2895 565.56 33.7395C568.15 33.7395 570.9 33.9495 573.8 34.3695C576.7 34.7895 579.35 35.3595 581.75 36.0895C584.15 36.8195 586.14 37.6695 587.7 38.6695C589.26 39.6595 590.05 40.7695 590.05 41.9895C590.05 42.3695 589.94 42.8095 589.71 43.3095C589.48 43.8095 589.17 44.2495 588.79 44.6295L589.04 45.0395C580.24 40.4795 570.25 37.8895 559.65 37.8895C543.32 37.8895 528.42 44.0195 517.11 54.0795C517.57 53.6695 518.03 53.2695 518.51 52.8695C507.38 43.5195 493.03 37.8895 477.36 37.8895C453.8 37.8895 433.23 50.6195 422.11 69.5795C422.49 67.1295 422.7 64.7595 422.7 62.4795C422.7 58.3595 422.15 54.2195 421.04 50.0595C419.93 45.8995 418.27 41.1495 416.06 37.7895H396.26V10.7495C392.29 9.90953 388.65 9.29953 385.33 8.91953C382.01 8.53953 378.71 8.34953 375.43 8.34953C371.23 8.34953 367.11 8.57954 363.07 9.03954C359.03 9.49954 355.78 10.0295 353.34 10.6395C352.73 12.3995 352 14.5895 351.17 17.2195C350.33 19.8495 349.45 22.5795 348.54 25.3995C347.62 28.2195 346.71 30.9295 345.79 33.5195C345.22 35.1395 344.69 36.5495 344.21 37.7795H318.98V10.7395C315.01 9.89953 311.37 9.28954 308.05 8.90954C304.73 8.52954 301.43 8.33953 298.15 8.33953C293.95 8.33953 289.83 8.56953 285.79 9.02953C281.75 9.48953 278.5 10.0195 276.06 10.6295C275.45 12.3895 274.72 14.5795 273.89 17.2095C273.05 19.8395 272.17 22.5695 271.26 25.3895C270.34 28.2095 269.43 30.9195 268.51 33.5095C267.59 36.0995 266.79 38.1995 266.11 39.7995C263.67 41.6295 260.86 43.6895 257.7 45.9795C254.53 48.2695 251.35 50.3995 248.14 52.3895C247.68 54.2995 247.32 56.6795 247.05 59.5395C246.84 61.7695 246.72 63.7895 246.67 65.6195C244.53 62.1095 242.08 58.8795 239.3 55.9495C233.88 50.2295 227.37 45.7895 219.77 42.6195C212.17 39.4495 203.76 37.8595 194.54 37.8595C185.32 37.8595 176.91 39.3395 169.31 42.2895C161.71 45.2395 155.18 49.4795 149.73 55.0095C144.27 60.5395 140.03 67.2395 137.01 75.0895C136.54 76.2995 136.13 77.5395 135.73 78.7995V38.9895C135.73 34.1795 134.77 30.1795 132.87 26.9695C130.96 23.7695 128.43 21.2095 125.26 19.2995C122.09 17.3895 118.47 16.0395 114.39 15.2395C110.31 14.4395 106.13 14.0395 101.86 14.0395C99.1102 14.0395 96.2902 14.2495 93.3902 14.6695C90.4902 15.0895 87.6702 15.7195 84.9202 16.5595C82.1702 17.3995 79.5602 18.4495 77.0802 19.7095C74.6002 20.9695 72.3702 22.4395 70.3802 24.1195V30.4095L82.7402 51.6895C83.4302 52.8295 84.0702 53.9995 84.6902 55.1795C85.3002 56.3595 85.6002 57.3695 85.6002 58.2095C85.6002 59.3495 85.2402 60.1695 84.5102 60.6695C83.7802 61.1695 83.0402 61.4095 82.2802 61.4095C79.7602 57.2095 77.3002 53.1095 74.9002 49.1095C72.5002 45.1095 70.1902 41.3295 67.9802 37.7795C65.7702 34.2295 63.6702 30.9895 61.6902 28.0495C59.7102 25.1095 57.8802 22.5795 56.2002 20.4395C53.9902 18.6895 50.7402 17.1995 46.4702 15.9795C42.2002 14.7595 37.5402 14.1495 32.5102 14.1495C28.0802 14.1495 23.9302 14.5095 20.0402 15.2395C16.1502 15.9695 12.7502 16.9395 9.86021 18.1595C6.96021 19.3795 4.67022 20.8495 2.99022 22.5695C1.31022 24.2895 0.470215 26.0995 0.470215 28.0095V142.67C0.470215 146.49 1.31022 149.84 2.99022 152.74C4.67022 155.64 7.03022 158.06 10.0802 160.01C13.1302 161.96 16.7502 163.43 20.9502 164.42C25.1402 165.41 29.7202 165.91 34.6802 165.91C39.0302 165.91 42.8802 165.6 46.2402 164.99C49.6002 164.38 52.5502 163.64 55.1102 162.76C57.6702 161.88 59.8202 160.95 61.5802 159.96C63.3302 158.97 64.7802 158.09 65.9302 157.33V151.27L51.6302 128.15C50.6402 126.55 49.8402 125.19 49.2302 124.09C48.6202 122.99 48.3102 121.86 48.3102 120.71C48.3102 119.79 48.5402 119.01 49.0002 118.36C49.4602 117.71 50.3302 117.31 51.6302 117.16C53.3802 120.06 55.2102 123.13 57.1202 126.37C59.0302 129.61 61.0902 133.03 63.3002 136.61C65.5102 140.2 67.9302 143.93 70.5702 147.82C73.2102 151.71 76.1602 155.76 79.4402 159.95C80.8102 160.79 82.4502 161.55 84.3602 162.24C86.2702 162.93 88.3202 163.54 90.5402 164.07C92.7502 164.6 95.1002 165 97.5802 165.27C100.06 165.54 102.52 165.67 104.96 165.67C108.92 165.67 112.76 165.36 116.46 164.75C120.16 164.14 123.44 163.13 126.3 161.72C129.16 160.31 131.45 158.42 133.17 156.06C134.89 153.7 135.74 150.8 135.74 147.36V125.09C136.23 126.67 136.75 128.21 137.35 129.69C140.6 137.73 145 144.44 150.57 149.83C156.14 155.22 162.7 159.24 170.26 161.89C177.82 164.55 185.92 165.87 194.55 165.87C204.21 165.87 212.88 164.39 220.55 161.44C228.22 158.49 234.71 154.27 240.02 148.77C245.33 143.28 249.39 136.62 252.19 128.8C254.99 120.98 256.39 112.2 256.39 102.47C256.39 96.8295 255.84 91.4695 254.78 86.3595H274.8C274.95 86.8195 275.03 87.2795 275.03 87.7295C275.03 88.8695 274.57 89.7895 273.66 90.4795C272.74 91.1695 271.29 91.5095 269.31 91.5095H262.22V124.58C262.22 131.6 263.21 137.68 265.2 142.83C267.18 147.98 270.01 152.27 273.67 155.7C277.33 159.13 281.7 161.69 286.77 163.37C291.84 165.05 297.47 165.89 303.65 165.89C315.93 165.89 325.39 163.11 332.03 157.54C337.21 153.19 340.36 147.3 341.5 139.89C341.8 140.9 342.12 141.89 342.48 142.84C344.46 147.99 347.29 152.28 350.95 155.71C354.61 159.14 358.98 161.7 364.05 163.38C369.12 165.06 374.75 165.9 380.93 165.9C393.21 165.9 402.67 163.12 409.31 157.55C415.95 151.98 419.27 143.9 419.27 133.29C419.27 131.54 419.15 129.78 418.92 128.03C428.92 150.35 451.32 165.91 477.36 165.91C493.03 165.91 507.38 160.27 518.51 150.92C529.64 160.27 543.99 165.91 559.66 165.91C568.63 165.91 577.17 164.06 584.93 160.72C585.65 161.22 586.38 161.7 587.14 162.12C589.47 163.42 591.95 164.37 594.58 164.98C597.21 165.59 599.9 165.9 602.65 165.9C606.54 165.9 610.35 165.25 614.09 163.95C617.83 162.65 621.17 160.65 624.1 157.94C627.04 155.23 629.42 151.78 631.25 147.58C632.45 144.83 633.25 141.73 633.66 138.28C636.22 142.64 639.22 146.49 642.68 149.83C648.25 155.22 654.81 159.24 662.38 161.89C669.94 164.55 678.04 165.87 686.67 165.87C696.33 165.87 705 164.39 712.67 161.44C720.34 158.49 726.83 154.27 732.14 148.77C737.45 143.28 741.51 136.62 744.31 128.8C747.11 120.98 748.51 112.2 748.51 102.47C748.51 92.7395 747.02 84.3395 744.03 76.4095C741.04 68.4795 736.84 61.6595 731.42 55.9395L731.41 55.9595ZM197.88 115.53C197.88 117.45 197.64 118.83 197.16 119.68C196.68 120.53 195.74 120.95 194.34 120.95C193.31 120.95 192.53 120.69 192.02 120.17V100.81C192.02 98.3795 191.98 96.2895 191.91 94.5595C191.84 92.8295 191.76 91.3095 191.69 90.0195C191.62 88.7295 191.5 87.5695 191.36 86.5295C191.21 85.4995 191.1 84.3895 191.03 83.2095C191.32 82.9195 191.67 82.6595 192.08 82.4395C192.49 82.2195 193.02 82.1095 193.68 82.1095C194.42 82.1095 195.06 82.3295 195.62 82.7695C196.17 83.2095 196.63 84.1695 197 85.6495C197.37 87.1295 197.61 89.0095 197.72 91.2895C197.83 93.5795 197.89 96.3795 197.89 99.6995V115.52L197.88 115.53ZM350.95 90.4895C350.03 91.1795 348.58 91.5195 346.6 91.5195H339.51V118.18H334.67C330.78 118.18 327.76 117.06 325.63 114.8C323.49 112.55 322.43 108.79 322.43 103.53V86.2495H326.44C326.44 86.2495 326.46 86.3295 326.47 86.3595H352.1C352.25 86.8195 352.33 87.2795 352.33 87.7295C352.33 88.8695 351.87 89.7895 350.96 90.4795L350.95 90.4895ZM411.94 118.18C408.05 118.18 405.03 117.06 402.9 114.8C400.76 112.55 399.7 108.79 399.7 103.53V86.2495H415.27C414.01 91.2495 413.34 96.4895 413.34 101.88C413.34 107.27 414.07 112.97 415.44 118.17H411.95L411.94 118.18ZM477.35 156.15C447.38 156.15 423.08 131.85 423.08 101.88C423.08 71.9095 447.38 47.6095 477.35 47.6095C480.29 47.6095 483.17 47.8495 485.98 48.2995C470.46 52.5395 459.05 66.7195 459.05 83.5895C459.05 103.79 475.43 120.17 495.63 120.17C496.52 120.17 497.39 120.13 498.26 120.07C500.92 129.05 505.48 137.19 511.5 144.05C502.17 151.61 490.3 156.15 477.36 156.15H477.35ZM559.64 156.15C529.67 156.15 505.37 131.85 505.37 101.88C505.37 71.9095 529.67 47.6095 559.64 47.6095C562.58 47.6095 565.46 47.8495 568.27 48.2995C552.75 52.5395 541.34 66.7195 541.34 83.5895C541.34 103.79 557.72 120.17 577.92 120.17C594.79 120.17 608.98 108.75 613.21 93.2195C613.66 96.0395 613.91 98.9295 613.91 101.88C613.91 131.85 589.61 156.15 559.64 156.15ZM689.97 115.54C689.97 117.46 689.73 118.84 689.25 119.69C688.77 120.54 687.83 120.96 686.43 120.96C685.4 120.96 684.62 120.7 684.11 120.18V100.82C684.11 98.3895 684.07 96.2995 684 94.5695C683.93 92.8395 683.85 91.3195 683.78 90.0295C683.71 88.7395 683.59 87.5795 683.45 86.5395C683.3 85.5095 683.19 84.3995 683.12 83.2195C683.41 82.9295 683.76 82.6695 684.17 82.4495C684.58 82.2295 685.11 82.1195 685.77 82.1195C686.51 82.1195 687.15 82.3395 687.71 82.7795C688.26 83.2195 688.72 84.1795 689.09 85.6595C689.46 87.1395 689.7 89.0195 689.81 91.2995C689.92 93.5895 689.98 96.3895 689.98 99.7095V115.53L689.97 115.54Z" fill="#090909"/>
</svg>
