<svg width="20" height="20" viewBox="0 0 20 20" fill="none" xmlns="http://www.w3.org/2000/svg">
<path d="M5.37879 15.8333L3.28449 17.4789C2.62836 17.9944 1.66667 17.527 1.66667 16.6925V3.33333C1.66667 2.8731 2.03977 2.5 2.5 2.5H17.5C17.9602 2.5 18.3333 2.8731 18.3333 3.33333V15C18.3333 15.4602 17.9602 15.8333 17.5 15.8333H5.37879ZM6.66667 8.33333C6.20643 8.33333 5.83333 8.70643 5.83333 9.16667C5.83333 9.6269 6.20643 10 6.66667 10C7.1269 10 7.5 9.6269 7.5 9.16667C7.5 8.70643 7.1269 8.33333 6.66667 8.33333ZM10 8.33333C9.53976 8.33333 9.16667 8.70643 9.16667 9.16667C9.16667 9.6269 9.53976 10 10 10C10.4602 10 10.8333 9.6269 10.8333 9.16667C10.8333 8.70643 10.4602 8.33333 10 8.33333ZM13.3333 8.33333C12.8731 8.33333 12.5 8.70643 12.5 9.16667C12.5 9.6269 12.8731 10 13.3333 10C13.7936 10 14.1667 9.6269 14.1667 9.16667C14.1667 8.70643 13.7936 8.33333 13.3333 8.33333Z" fill="#090909"/>
</svg>
