<svg width="28" height="18" viewBox="0 0 28 18" fill="none" xmlns="http://www.w3.org/2000/svg">
<path d="M19.2817 2.11035C17.1655 2.11035 15.2726 3.05235 13.9997 4.53662C12.7277 3.05328 10.8338 2.11035 8.71767 2.11035C4.88679 2.11035 1.78101 5.19536 1.78101 9.00062C1.78101 12.8059 4.88679 15.8909 8.71767 15.8909C10.8338 15.8909 12.7268 14.9489 13.9997 13.4646C15.2716 14.948 17.1655 15.8909 19.2817 15.8909C23.1125 15.8909 26.2183 12.8059 26.2183 9.00062C26.2183 5.19536 23.1125 2.11035 19.2817 2.11035Z" fill="white"/>
<path d="M19.282 0.836914C17.1855 0.836914 15.2729 1.61772 13.8208 2.90167C13.8799 2.84949 13.939 2.79824 14 2.74793C12.5714 1.55622 10.7301 0.836914 8.718 0.836914C4.17892 0.836914 0.5 4.49123 0.5 8.99995C0.5 13.5087 4.17892 17.163 8.718 17.163C10.7291 17.163 12.5714 16.4437 14 15.252C15.4286 16.4437 17.2699 17.163 19.282 17.163C23.8201 17.163 27.5 13.5087 27.5 8.99995C27.5 4.49123 23.8201 0.836914 19.282 0.836914ZM8.71894 15.92C4.87118 15.92 1.75226 12.822 1.75226 8.99995C1.75226 5.17792 4.87118 2.07986 8.71894 2.07986C9.09603 2.07986 9.46561 2.11061 9.82674 2.16745C7.83439 2.70786 6.3692 4.51638 6.3692 6.66685C6.3692 9.24314 8.4713 11.3312 11.0649 11.3312C11.1784 11.3312 11.291 11.3265 11.4026 11.3181C11.7431 12.4623 12.3303 13.5012 13.1014 14.3761C11.9045 15.3405 10.3792 15.9182 8.718 15.9182L8.71894 15.92ZM13.3077 14.6025C13.3134 14.6081 13.319 14.6137 13.3237 14.6193C13.3181 14.6137 13.3124 14.6081 13.3077 14.6025ZM19.282 15.92C15.4342 15.92 12.3153 12.822 12.3153 8.99995C12.3153 5.17792 15.4342 2.07986 19.282 2.07986C19.6591 2.07986 20.0287 2.11061 20.3898 2.16745C18.3974 2.70786 16.9332 4.51638 16.9332 6.66685C16.9332 9.24314 19.0353 11.3312 21.6289 11.3312C23.7939 11.3312 25.6165 9.87486 26.1596 7.8949C26.2177 8.25455 26.2487 8.62352 26.2487 8.99902C26.2487 12.821 23.1298 15.9191 19.2829 15.9191L19.282 15.92Z" fill="#090909"/>
</svg>
