<svg width="20" height="20" viewBox="0 0 20 20" fill="none" xmlns="http://www.w3.org/2000/svg">
<g clip-path="url(#clip0_1774_7191)">
<path d="M9.99996 1.66699C5.39163 1.66699 1.66663 5.39199 1.66663 10.0003C1.66663 14.6087 5.39163 18.3337 9.99996 18.3337C14.6083 18.3337 18.3333 14.6087 18.3333 10.0003C18.3333 5.39199 14.6083 1.66699 9.99996 1.66699ZM13.5791 12.4045C13.9036 12.729 13.9036 13.255 13.5791 13.5795C13.2547 13.904 12.7286 13.904 12.4041 13.5795L9.99996 11.1753L7.59579 13.5795C7.27133 13.904 6.74526 13.904 6.42079 13.5795C6.09633 13.255 6.09633 12.729 6.42079 12.4045L8.82496 10.0003L6.42079 7.59616C6.09633 7.27169 6.09633 6.74563 6.42079 6.42116C6.74526 6.09669 7.27133 6.09669 7.59579 6.42116L9.99996 8.82533L12.4041 6.42116C12.7286 6.09669 13.2547 6.09669 13.5791 6.42116C13.9036 6.74563 13.9036 7.27169 13.5791 7.59616L11.175 10.0003L13.5791 12.4045Z" fill="#D5D5D5"/>
</g>
<defs>
<clipPath id="clip0_1774_7191">
<rect width="20" height="20" fill="white"/>
</clipPath>
</defs>
</svg>
