<svg width="20" height="20" viewBox="0 0 20 20" fill="none" xmlns="http://www.w3.org/2000/svg">
<path d="M3.33333 15.8333C3.33333 15.3731 3.70643 15 4.16667 15C4.6269 15 5 15.3731 5 15.8333V16.6666H15V3.33329H5V4.16663C5 4.62686 4.6269 4.99996 4.16667 4.99996C3.70643 4.99996 3.33333 4.62686 3.33333 4.16663V2.49996C3.33333 2.03973 3.70643 1.66663 4.16667 1.66663H15.8333C16.2936 1.66663 16.6667 2.03973 16.6667 2.49996V17.5C16.6667 17.9602 16.2936 18.3333 15.8333 18.3333H4.16667C3.70643 18.3333 3.33333 17.9602 3.33333 17.5V15.8333ZM5 9.16663H10.8333V10.8333H5V13.3333L0.833332 9.99996L5 6.66663V9.16663Z" fill="#090909"/>
</svg>
