<svg width="320" height="320" viewBox="0 0 320 320" fill="none" xmlns="http://www.w3.org/2000/svg">
<path d="M97.312 87.464L98.24 84.52H99.056L98.576 87.464H97.312ZM110.351 84.152H111.551V88.44H113.647V89.432H111.551V94.488H110.351V84.152ZM100.991 88.6C100.991 86.568 102.543 85.16 104.623 85.16C106.703 85.16 108.255 86.568 108.255 88.6C108.255 90.616 106.703 92.04 104.623 92.04C102.543 92.04 100.991 90.616 100.991 88.6ZM102.159 88.6C102.159 89.992 103.215 90.984 104.623 90.984C106.031 90.984 107.103 89.992 107.103 88.6C107.103 87.208 106.031 86.2 104.623 86.2C103.215 86.2 102.159 87.208 102.159 88.6ZM102.879 97.848V93.432H104.062V96.856H112.207V97.848H102.879ZM116.799 84.536L115.887 87.48H115.055L115.551 84.536H116.799ZM128.301 84.168H129.501V89.96H131.821V90.968H129.501V98.168H128.301V84.168ZM118.669 87.416V86.424H122.253V84.328H123.469V86.424H126.957V87.416H118.669ZM119.485 91.816C119.485 89.928 120.925 88.616 122.877 88.616C124.845 88.616 126.269 89.928 126.269 91.816C126.269 93.704 124.845 95.016 122.877 95.016C120.925 95.016 119.485 93.704 119.485 91.816ZM120.637 91.816C120.637 93.096 121.565 94.008 122.877 94.008C124.173 94.008 125.117 93.096 125.117 91.816C125.117 90.536 124.173 89.608 122.877 89.608C121.565 89.608 120.637 90.536 120.637 91.816ZM142.99 84.168H144.19V98.168H142.99V84.168ZM132.91 94.568C136.686 92.76 138.59 90.024 138.846 86.664H133.534V85.672H140.062C140.062 89.704 138.206 93.256 133.55 95.528L132.91 94.568ZM156.254 84.152H157.47V89.88H159.726V90.888H157.47V98.168H156.254V84.152ZM146.83 94.552C150.43 92.744 152.382 89.992 152.654 86.664H147.47V85.672H153.87C153.87 89.624 152.014 93.224 147.502 95.48L146.83 94.552ZM166.582 92.904H167.766V94.456H174.534V92.904H175.734V97.976H166.582V92.904ZM164.39 90.328C167.014 90.328 170.518 90.312 173.574 89.912L173.67 90.792C172.406 91 171.078 91.128 169.798 91.208V93.32H168.63V91.256C167.158 91.32 165.766 91.32 164.55 91.32L164.39 90.328ZM165.03 88.488C167.03 88.008 168.454 86.728 168.454 85.224V84.504H169.686V85.224C169.686 86.664 171.126 87.848 173.094 88.28L172.582 89.208C170.95 88.824 169.67 87.96 169.078 86.776C168.502 88.024 167.222 88.968 165.558 89.4L165.03 88.488ZM167.766 97H174.534V95.384H167.766V97ZM174.534 92.2V84.168H175.734V92.2H174.534ZM178.806 85.608H186.63V86.616H183.302V88.504C183.302 90.888 185.062 93.288 187.078 94.168L186.39 95.128C184.79 94.376 183.366 92.744 182.71 90.808C182.07 92.872 180.662 94.664 179.062 95.464L178.374 94.52C180.342 93.56 182.102 90.92 182.102 88.504V86.616H178.806V85.608ZM188.582 98.168V84.168H189.782V98.168H188.582ZM199.918 84.968C202.014 84.968 203.534 86.312 203.534 88.2C203.534 90.104 202.014 91.432 199.918 91.432C197.87 91.432 196.334 90.104 196.334 88.2C196.334 86.312 197.87 84.968 199.918 84.968ZM197.502 88.2C197.502 89.512 198.542 90.44 199.918 90.44C201.326 90.44 202.366 89.512 202.366 88.2C202.366 86.904 201.326 85.976 199.918 85.976C198.542 85.976 197.502 86.904 197.502 88.2ZM197.534 97.8V92.696H198.702V96.792C199.502 96.76 200.59 96.648 201.582 96.312L201.79 97.288C200.43 97.736 199.102 97.8 198.206 97.8H197.534ZM201.278 93.672V92.776H204.206V91.496H205.39V92.776H208.302V93.672H201.278ZM202.222 96.168C202.222 94.968 203.278 94.2 204.798 94.2C206.302 94.2 207.374 94.968 207.374 96.168C207.374 97.368 206.302 98.136 204.798 98.136C203.278 98.136 202.222 97.368 202.222 96.168ZM203.294 96.168C203.294 96.84 203.902 97.288 204.798 97.288C205.678 97.288 206.302 96.84 206.302 96.168C206.302 95.496 205.678 95.048 204.798 95.048C203.902 95.048 203.294 95.496 203.294 96.168ZM205.694 91.144V84.168H206.894V87.336H208.99V88.344H206.894V91.144H205.694ZM213.759 85.256C215.807 85.256 217.247 87.144 217.247 90.12C217.247 93.096 215.807 95 213.759 95C211.711 95 210.255 93.096 210.255 90.12C210.255 87.144 211.711 85.256 213.759 85.256ZM211.407 90.12C211.407 92.408 212.367 93.928 213.759 93.928C215.151 93.928 216.111 92.408 216.111 90.12C216.111 87.832 215.151 86.328 213.759 86.328C212.367 86.328 211.407 87.832 211.407 90.12ZM219.583 98.168V84.168H220.783V89.8H223.103V90.808H220.783V98.168H219.583Z" fill="#090909"/>
<g clip-path="url(#clip0_666_3870)">
<path d="M114.663 140.393H103V126.383C103 125.649 103.254 125.056 103.734 124.547C104.214 124.039 104.836 123.813 105.57 123.813H108.168V133.925C108.168 134.772 108.591 135.224 109.467 135.224H114.663V140.421V140.393ZM125.648 152.426L121.468 156.126L119.209 152.906L115.651 147.85L112.093 152.906L109.834 156.126L107.321 154.968C106.953 154.798 106.643 154.629 106.36 154.459C106.078 154.29 105.88 154.064 105.767 153.782C105.541 153.217 105.654 152.623 106.078 151.974L106.756 151.013L109.636 146.946L110.088 146.296L113.251 141.777H118.136L121.299 146.296L121.779 146.946L124.631 151.013L125.704 152.397L125.648 152.426ZM127.709 134.8H123.925V140.393H118.729V123.813H123.925V129.603H127.709V134.8Z" fill="#090909"/>
<path d="M130.279 144.856V139.659H148.21V144.856H141.744V149.968H136.548V144.856H130.279ZM131.098 117.599C131.606 117.09 132.199 116.864 132.933 116.864H148.21V122.061H136.83C136.378 122.061 136.039 122.259 135.842 122.683C135.644 123.078 135.531 123.53 135.531 123.982V124.519H147.42V129.716H135.531V130.874C135.531 131.722 135.955 132.173 136.83 132.173H148.21V137.371H130.363V119.435C130.363 118.7 130.618 118.107 131.098 117.599Z" fill="#090909"/>
<path d="M150.78 144.856V139.658H168.712V144.856H162.245V149.968H157.049V144.856H150.78ZM150.921 136.947V126.326C150.921 125.592 151.175 124.971 151.655 124.49C152.135 123.982 152.729 123.756 153.463 123.756H168.655V128.869H157.331C156.936 128.869 156.625 129.01 156.4 129.264C156.174 129.546 156.061 129.885 156.032 130.337C156.032 130.733 156.174 131.072 156.4 131.354C156.625 131.637 156.936 131.806 157.331 131.806H168.655V136.919H150.921V136.947Z" fill="#090909"/>
<path d="M171.62 172V159.318C171.62 158.583 171.874 157.99 172.354 157.482C172.835 156.973 173.484 156.691 174.218 156.691H182.831C183.706 156.691 184.158 156.267 184.158 155.391V153.16C184.158 152.284 183.706 151.833 182.831 151.833H171.62V146.607H189.354V161.888H178.143C177.296 161.888 176.844 162.34 176.844 163.216V165.447C176.844 166.294 177.268 166.746 178.143 166.746H189.354V171.972H171.62V172ZM171.846 144.856V139.659H189.778V144.856H171.846ZM189.806 135.055C189.806 135.789 189.552 136.382 189.072 136.89C188.564 137.399 187.942 137.625 187.208 137.625H184.638V133.557H171.931V128.36H184.638V127.513C184.638 126.666 184.215 126.214 183.339 126.214H171.931V121.016H189.834V135.026L189.806 135.055Z" fill="#090909"/>
<path d="M192.658 140.308V127.654C192.658 126.92 192.912 126.298 193.392 125.79C193.901 125.281 194.522 125.056 195.256 125.056H195.877L197.769 125.027C198.645 125.027 199.097 124.604 199.097 123.728V121.497C199.097 120.649 198.645 120.197 197.769 120.197H192.658V115H204.321V130.281H199.181C198.334 130.281 197.882 130.705 197.882 131.58V133.812C197.882 134.687 198.306 135.139 199.181 135.139H204.321V140.336H192.658V140.308ZM203.107 156.013V141.805H208.387V144.46H211.719V141.805H214.374C215.108 141.805 215.729 142.059 216.238 142.596C216.746 143.105 217.028 143.726 217.028 144.46V156.013H203.135H203.107ZM206.128 129.518H211.606V123.728H216.802V140.308H211.606V134.716H206.128V129.518ZM211.719 151.437V149.036H208.387V151.437H211.719Z" fill="#090909"/>
</g>
<defs>
<clipPath id="clip0_666_3870">
<rect width="114" height="57" fill="white" transform="translate(103 115)"/>
</clipPath>
</defs>
</svg>
