<svg width="21" height="20" viewBox="0 0 21 20" fill="none" xmlns="http://www.w3.org/2000/svg">
<path d="M18.2338 15.3534C17.944 16.023 17.6009 16.6394 17.2034 17.2061C16.6615 17.9787 16.2178 18.5134 15.8759 18.8104C15.3459 19.2978 14.778 19.5474 14.1699 19.5616C13.7334 19.5616 13.2069 19.4374 12.594 19.1854C11.9792 18.9346 11.4141 18.8104 10.8975 18.8104C10.3556 18.8104 9.7745 18.9346 9.1529 19.1854C8.53036 19.4374 8.02884 19.5687 7.6454 19.5818C7.06226 19.6066 6.48101 19.3499 5.90082 18.8104C5.53051 18.4874 5.06733 17.9337 4.51246 17.1493C3.91713 16.3117 3.42768 15.3404 3.04424 14.233C2.63359 13.0369 2.42773 11.8787 2.42773 10.7573C2.42773 9.47284 2.70529 8.36499 3.26122 7.43662C3.69814 6.69092 4.27939 6.10268 5.00687 5.67086C5.73436 5.23903 6.5204 5.01897 7.36691 5.00489C7.83009 5.00489 8.43749 5.14817 9.1923 5.42974C9.94498 5.71227 10.4283 5.85554 10.6402 5.85554C10.7986 5.85554 11.3355 5.68801 12.2456 5.35402C13.1063 5.04429 13.8327 4.91604 14.4278 4.96656C16.0404 5.0967 17.2519 5.73238 18.0576 6.87761C16.6154 7.75144 15.902 8.97535 15.9162 10.5454C15.9292 11.7684 16.3728 12.7861 17.2448 13.5941C17.6399 13.9692 18.0812 14.259 18.5722 14.4649C18.4657 14.7737 18.3533 15.0694 18.2338 15.3534ZM14.5355 0.80019C14.5355 1.75874 14.1853 2.65374 13.4873 3.48214C12.6449 4.46694 11.626 5.03601 10.5211 4.94621C10.5071 4.83122 10.4989 4.71019 10.4989 4.583C10.4989 3.6628 10.8995 2.67799 11.6109 1.87278C11.9661 1.46509 12.4178 1.1261 12.9655 0.855677C13.5121 0.589292 14.0291 0.441975 14.5154 0.416748C14.5296 0.544891 14.5355 0.673043 14.5355 0.800178V0.80019Z" fill="white"/>
</svg>
