<svg width="20" height="20" viewBox="0 0 20 20" fill="none" xmlns="http://www.w3.org/2000/svg">
<path d="M16.6667 13.0026H16.918C17.6997 13.0026 18.3333 13.6362 18.3333 14.4179C18.3333 15.1996 17.6997 15.8333 16.918 15.8333H3.08203C2.30035 15.8333 1.66667 15.1996 1.66667 14.4179C1.66667 13.6362 2.30035 13.0026 3.08204 13.0026H3.33334V8.33329C3.33334 4.65139 6.3181 1.66663 10 1.66663C13.6819 1.66663 16.6667 4.65139 16.6667 8.33329V13.0026ZM7.5 17.8346C7.5 17.0989 8.09638 16.5026 8.83204 16.5026H11.168C11.9036 16.5026 12.5 17.0989 12.5 17.8346C12.5 18.5703 11.9036 19.1666 11.168 19.1666H8.83204C8.09638 19.1666 7.5 18.5703 7.5 17.8346Z" fill="#090909"/>
</svg>
