<svg width="320" height="320" viewBox="0 0 320 320" fill="none" xmlns="http://www.w3.org/2000/svg">
<g clip-path="url(#clip0_666_3848)">
<path d="M151.609 153.66C148.223 153.66 145.195 155.19 143.159 157.598C141.122 155.19 138.094 153.66 134.708 153.66C128.58 153.66 123.61 158.668 123.61 164.844C123.61 171.02 128.58 176.028 134.708 176.028C138.094 176.028 141.122 174.498 143.159 172.09C145.195 174.498 148.223 176.028 151.609 176.028C157.738 176.028 162.707 171.02 162.707 164.844C162.707 158.668 157.738 153.66 151.609 153.66Z" fill="white"/>
<path d="M185.558 155.574C184.482 154.43 183.19 153.542 181.682 152.908C180.174 152.274 178.505 151.956 176.675 151.956C174.845 151.956 173.176 152.252 171.668 152.842C170.159 153.432 168.863 154.28 167.782 155.386C166.698 156.492 165.857 157.832 165.257 159.402C164.946 160.22 164.715 161.09 164.567 162.008V150.51C164.567 149.548 164.412 148.698 164.1 147.958C163.791 147.218 163.358 146.592 162.806 146.082C162.253 145.572 161.6 145.186 160.841 144.926C160.083 144.666 159.268 144.536 158.388 144.536C157.587 144.536 156.87 144.608 156.243 144.754C155.614 144.9 155.046 145.098 154.54 145.35C154.032 145.602 153.576 145.904 153.167 146.254C152.758 146.606 152.379 146.986 152.032 147.398C152.137 147.626 152.228 147.898 152.304 148.21C152.379 148.522 152.443 148.844 152.496 149.172C152.55 149.5 152.587 149.836 152.609 150.18C152.631 150.524 152.643 150.84 152.643 151.13C153.157 151.13 153.703 151.172 154.278 151.256C154.854 151.34 155.38 151.454 155.856 151.6C156.332 151.746 156.727 151.916 157.037 152.116C157.347 152.314 157.503 152.536 157.503 152.78C157.503 152.856 157.482 152.944 157.436 153.044C157.39 153.144 157.329 153.232 157.253 153.308L157.303 153.39C155.556 152.478 153.574 151.96 151.47 151.96C148.229 151.96 145.272 153.186 143.028 155.198C143.119 155.116 143.21 155.036 143.305 154.956C141.097 153.086 138.249 151.96 135.139 151.96C130.463 151.96 126.381 154.506 124.174 158.298C124.249 157.808 124.291 157.334 124.291 156.878C124.291 156.054 124.182 155.226 123.961 154.394C123.741 153.562 123.412 152.612 122.973 151.94H119.043V146.532C118.256 146.364 117.533 146.242 116.874 146.166C116.215 146.09 115.56 146.052 114.91 146.052C114.076 146.052 113.258 146.098 112.457 146.19C111.655 146.282 111.01 146.388 110.526 146.51C110.404 146.862 110.26 147.3 110.095 147.826C109.928 148.352 109.753 148.898 109.573 149.462C109.39 150.026 109.21 150.568 109.027 151.086C108.914 151.41 108.809 151.692 108.714 151.938H103.706V146.53C102.918 146.362 102.196 146.24 101.537 146.164C100.878 146.088 100.223 146.05 99.5724 146.05C98.7389 146.05 97.9212 146.096 97.1194 146.188C96.3176 146.28 95.6726 146.386 95.1884 146.508C95.0673 146.86 94.9225 147.298 94.7577 147.824C94.591 148.35 94.4164 148.896 94.2358 149.46C94.0532 150.024 93.8726 150.566 93.69 151.084C93.5074 151.602 93.3487 152.022 93.2137 152.342C92.7295 152.708 92.1718 153.12 91.5447 153.578C90.9155 154.036 90.2844 154.462 89.6474 154.86C89.5561 155.242 89.4846 155.718 89.431 156.29C89.3894 156.736 89.3655 157.14 89.3556 157.506C88.9309 156.804 88.4447 156.158 87.893 155.572C86.8173 154.428 85.5253 153.54 84.017 152.906C82.5087 152.272 80.8396 151.954 79.0098 151.954C77.18 151.954 75.5109 152.25 74.0026 152.84C72.4943 153.43 71.1984 154.278 70.1168 155.384C69.0332 156.49 68.1917 157.83 67.5923 159.4C67.4991 159.642 67.4177 159.89 67.3383 160.142V152.18C67.3383 151.218 67.1478 150.418 66.7707 149.776C66.3916 149.136 65.8895 148.624 65.2604 148.242C64.6313 147.86 63.9128 147.59 63.1031 147.43C62.2934 147.27 61.4638 147.19 60.6164 147.19C60.0706 147.19 59.511 147.232 58.9354 147.316C58.3599 147.4 57.8002 147.526 57.2545 147.694C56.7087 147.862 56.1907 148.072 55.6985 148.324C55.2063 148.576 54.7638 148.87 54.3688 149.206V150.464L56.8218 154.72C56.9588 154.948 57.0858 155.182 57.2088 155.418C57.3299 155.654 57.3894 155.856 57.3894 156.024C57.3894 156.252 57.318 156.416 57.1731 156.516C57.0282 156.616 56.8814 156.664 56.7305 156.664C56.2304 155.824 55.7422 155.004 55.2659 154.204C54.7896 153.404 54.3311 152.648 53.8925 151.938C53.4539 151.228 53.0372 150.58 52.6442 149.992C52.2512 149.404 51.8881 148.898 51.5546 148.47C51.116 148.12 50.471 147.822 49.6236 147.578C48.7762 147.334 47.8514 147.212 46.8531 147.212C45.9739 147.212 45.1503 147.284 44.3783 147.43C43.6063 147.576 42.9315 147.77 42.3579 148.014C41.7824 148.258 41.3279 148.552 40.9945 148.896C40.6611 149.24 40.4944 149.602 40.4944 149.984V172.916C40.4944 173.68 40.6611 174.35 40.9945 174.93C41.3279 175.51 41.7963 175.994 42.4016 176.384C43.0069 176.774 43.7253 177.068 44.5589 177.266C45.3904 177.464 46.2994 177.564 47.2838 177.564C48.1471 177.564 48.9111 177.502 49.578 177.38C50.2448 177.258 50.8303 177.11 51.3383 176.934C51.8464 176.758 52.2731 176.572 52.6224 176.374C52.9697 176.176 53.2574 176 53.4857 175.848V174.636L50.6477 170.012C50.4512 169.692 50.2924 169.42 50.1714 169.2C50.0503 168.98 49.9888 168.754 49.9888 168.524C49.9888 168.34 50.0344 168.184 50.1257 168.054C50.217 167.924 50.3897 167.844 50.6477 167.814C50.995 168.394 51.3582 169.008 51.7372 169.656C52.1163 170.304 52.5251 170.988 52.9637 171.704C53.4023 172.422 53.8826 173.168 54.4065 173.946C54.9305 174.724 55.5159 175.534 56.1669 176.372C56.4388 176.54 56.7643 176.692 57.1433 176.83C57.5224 176.968 57.9292 177.09 58.3698 177.196C58.8084 177.302 59.2748 177.382 59.767 177.436C60.2592 177.49 60.7474 177.516 61.2316 177.516C62.0175 177.516 62.7796 177.454 63.5139 177.332C64.2482 177.21 64.8992 177.008 65.4668 176.726C66.0344 176.444 66.4889 176.066 66.8302 175.594C67.1716 175.122 67.3403 174.542 67.3403 173.854V169.4C67.4375 169.716 67.5407 170.024 67.6598 170.32C68.3048 171.928 69.178 173.27 70.2835 174.348C71.3889 175.426 72.6908 176.23 74.1912 176.76C75.6915 177.292 77.2991 177.556 79.0118 177.556C80.9289 177.556 82.6496 177.26 84.1718 176.67C85.694 176.08 86.982 175.236 88.0359 174.136C89.0897 173.038 89.8954 171.706 90.4511 170.142C91.0068 168.578 91.2847 166.822 91.2847 164.876C91.2847 163.748 91.1755 162.676 90.9651 161.654H94.9383C94.9681 161.746 94.984 161.838 94.984 161.928C94.984 162.156 94.8927 162.34 94.7121 162.478C94.5295 162.616 94.2417 162.684 93.8488 162.684H92.4417V169.298C92.4417 170.702 92.6382 171.918 93.0331 172.948C93.4261 173.978 93.9877 174.836 94.7141 175.522C95.4405 176.208 96.3077 176.72 97.3139 177.056C98.3201 177.392 99.4375 177.56 100.664 177.56C103.101 177.56 104.979 177.004 106.296 175.89C107.324 175.02 107.949 173.842 108.176 172.36C108.235 172.562 108.299 172.76 108.37 172.95C108.763 173.98 109.325 174.838 110.051 175.524C110.778 176.21 111.645 176.722 112.651 177.058C113.657 177.394 114.775 177.562 116.001 177.562C118.438 177.562 120.316 177.006 121.633 175.892C122.951 174.778 123.61 173.162 123.61 171.04C123.61 170.69 123.586 170.338 123.541 169.988C125.525 174.452 129.971 177.564 135.139 177.564C138.249 177.564 141.097 176.436 143.305 174.566C145.514 176.436 148.362 177.564 151.472 177.564C153.252 177.564 154.947 177.194 156.487 176.526C156.63 176.626 156.775 176.722 156.926 176.806C157.388 177.066 157.88 177.256 158.402 177.378C158.924 177.5 159.458 177.562 160.004 177.562C160.776 177.562 161.532 177.432 162.274 177.172C163.017 176.912 163.679 176.512 164.261 175.97C164.844 175.428 165.317 174.738 165.68 173.898C165.918 173.348 166.077 172.728 166.158 172.038C166.666 172.91 167.262 173.68 167.948 174.348C169.054 175.426 170.356 176.23 171.858 176.76C173.358 177.292 174.966 177.556 176.679 177.556C178.596 177.556 180.316 177.26 181.839 176.67C183.361 176.08 184.649 175.236 185.703 174.136C186.757 173.038 187.562 171.706 188.118 170.142C188.674 168.578 188.952 166.822 188.952 164.876C188.952 162.93 188.656 161.25 188.062 159.664C187.469 158.078 186.635 156.714 185.56 155.57L185.558 155.574ZM79.6727 167.488C79.6727 167.872 79.625 168.148 79.5298 168.318C79.4345 168.488 79.248 168.572 78.9701 168.572C78.7657 168.572 78.6109 168.52 78.5097 168.416V164.544C78.5097 164.058 78.5018 163.64 78.4879 163.294C78.474 162.948 78.4581 162.644 78.4442 162.386C78.4303 162.128 78.4065 161.896 78.3787 161.688C78.3489 161.482 78.3271 161.26 78.3132 161.024C78.3708 160.966 78.4402 160.914 78.5216 160.87C78.603 160.826 78.7082 160.804 78.8391 160.804C78.986 160.804 79.113 160.848 79.2242 160.936C79.3333 161.024 79.4246 161.216 79.498 161.512C79.5715 161.808 79.6191 162.184 79.6409 162.64C79.6628 163.098 79.6747 163.658 79.6747 164.322V167.486L79.6727 167.488ZM110.051 162.48C109.869 162.618 109.581 162.686 109.188 162.686H107.781V168.018H106.82C106.048 168.018 105.449 167.794 105.026 167.342C104.601 166.892 104.391 166.14 104.391 165.088V161.632H105.187C105.187 161.632 105.191 161.648 105.193 161.654H110.279C110.309 161.746 110.325 161.838 110.325 161.928C110.325 162.156 110.234 162.34 110.053 162.478L110.051 162.48ZM122.155 168.018C121.383 168.018 120.784 167.794 120.361 167.342C119.937 166.892 119.726 166.14 119.726 165.088V161.632H122.816C122.566 162.632 122.433 163.68 122.433 164.758C122.433 165.836 122.578 166.976 122.85 168.016H122.157L122.155 168.018ZM135.137 175.612C129.189 175.612 124.366 170.752 124.366 164.758C124.366 158.764 129.189 153.904 135.137 153.904C135.72 153.904 136.292 153.952 136.849 154.042C133.769 154.89 131.505 157.726 131.505 161.1C131.505 165.14 134.756 168.416 138.765 168.416C138.941 168.416 139.114 168.408 139.287 168.396C139.814 170.192 140.719 171.82 141.914 173.192C140.063 174.704 137.707 175.612 135.139 175.612H135.137ZM151.468 175.612C145.52 175.612 140.698 170.752 140.698 164.758C140.698 158.764 145.52 153.904 151.468 153.904C152.052 153.904 152.623 153.952 153.181 154.042C150.101 154.89 147.836 157.726 147.836 161.1C147.836 165.14 151.087 168.416 155.096 168.416C158.444 168.416 161.26 166.132 162.1 163.026C162.189 163.59 162.239 164.168 162.239 164.758C162.239 170.752 157.416 175.612 151.468 175.612ZM177.334 167.49C177.334 167.874 177.286 168.15 177.191 168.32C177.095 168.49 176.909 168.574 176.631 168.574C176.427 168.574 176.272 168.522 176.171 168.418V164.546C176.171 164.06 176.163 163.642 176.149 163.296C176.135 162.95 176.119 162.646 176.105 162.388C176.091 162.13 176.067 161.898 176.04 161.69C176.01 161.484 175.988 161.262 175.974 161.026C176.032 160.968 176.101 160.916 176.183 160.872C176.264 160.828 176.369 160.806 176.5 160.806C176.647 160.806 176.774 160.85 176.885 160.938C176.994 161.026 177.086 161.218 177.159 161.514C177.232 161.81 177.28 162.186 177.302 162.642C177.324 163.1 177.336 163.66 177.336 164.324V167.488L177.334 167.49Z" fill="#090909"/>
<path d="M214.192 154.01C213.235 153.284 212.108 152.73 210.812 152.352C209.516 151.974 208.125 151.784 206.638 151.784C205.049 151.784 203.505 152.044 202.01 152.564C200.516 153.084 199.186 153.866 198.023 154.912C196.86 155.958 195.925 157.276 195.219 158.862C194.512 160.45 194.159 162.304 194.159 164.426C194.159 166.4 194.449 168.196 195.032 169.812C195.614 171.43 196.449 172.81 197.539 173.952C198.629 175.094 199.946 175.982 201.492 176.612C203.038 177.242 204.783 177.558 206.728 177.558C208.407 177.558 209.863 177.342 211.102 176.912C212.338 176.482 213.366 175.926 214.184 175.242C215.002 174.56 215.613 173.792 216.018 172.938C216.423 172.084 216.625 171.228 216.625 170.368C216.625 169.434 216.518 168.624 216.306 167.942C216.091 167.26 215.831 166.68 215.522 166.206C215.049 166.518 214.45 166.792 213.722 167.03C212.993 167.268 212.09 167.386 211.017 167.386C210.014 167.386 209.131 167.234 208.367 166.93C207.601 166.626 206.96 166.248 206.446 165.794C205.93 165.342 205.537 164.848 205.265 164.314C204.993 163.78 204.856 163.276 204.856 162.8C204.856 162.518 204.948 162.33 205.132 162.232C205.317 162.136 205.549 162.088 205.829 162.088C205.918 162.726 206.109 163.308 206.402 163.836C206.696 164.362 207.075 164.816 207.539 165.194C208.004 165.572 208.548 165.866 209.175 166.074C209.8 166.282 210.489 166.386 211.241 166.386C212.138 166.386 212.959 166.238 213.704 165.94C214.448 165.644 215.085 165.224 215.615 164.682C216.145 164.14 216.558 163.494 216.851 162.746C217.145 161.998 217.294 161.17 217.294 160.264C217.294 158.914 217.018 157.716 216.466 156.67C215.915 155.624 215.158 154.738 214.202 154.01H214.192Z" fill="#090909"/>
<path d="M229.213 166.728C228.987 165.972 228.872 165.068 228.872 164.016V149.528C228.872 148.78 228.755 148.102 228.521 147.492C228.287 146.882 227.92 146.36 227.419 145.924C226.919 145.49 226.28 145.15 225.5 144.906C224.72 144.662 223.786 144.54 222.696 144.54C222.029 144.54 221.402 144.598 220.811 144.712C220.219 144.826 219.693 144.964 219.233 145.124C218.77 145.284 218.374 145.448 218.04 145.616C217.707 145.784 217.465 145.914 217.314 146.006V169.784C217.314 171.248 217.506 172.476 217.893 173.468C218.28 174.46 218.79 175.26 219.425 175.87C220.06 176.48 220.795 176.916 221.628 177.174C222.46 177.434 223.323 177.564 224.216 177.564C226.199 177.564 228.06 177.024 229.444 175.934C230.932 174.76 231.772 173.018 231.573 170.418C231.565 170.326 230.978 170.794 230.978 170.618C230.978 170.442 231.192 167.74 231.176 167.618C230.184 167.818 229.44 167.486 229.213 166.73V166.728Z" fill="#090909"/>
<path d="M254.595 167.016C254.396 166.616 254.396 166.416 254.321 165.586V153.632C253.835 153.096 253.114 152.65 252.158 152.29C251.201 151.93 250.064 151.75 248.742 151.75C247.982 151.75 247.311 151.796 246.728 151.888C246.142 151.98 245.616 152.094 245.146 152.232C244.676 152.37 244.261 152.526 243.906 152.702C243.548 152.878 243.227 153.05 242.937 153.218V164.552C242.937 165.134 242.955 165.608 242.995 165.974C243.032 166.342 243.09 166.654 243.165 166.914C243.09 166.976 243.009 167.028 242.927 167.074C242.844 167.12 242.725 167.142 242.574 167.142C242.332 167.142 242.129 166.986 241.971 166.672C241.812 166.358 241.732 165.774 241.732 164.916V157.482C241.732 156.534 241.584 155.72 241.288 155.038C240.992 154.358 240.577 153.796 240.047 153.352C239.516 152.908 238.879 152.584 238.134 152.376C237.39 152.17 236.578 152.066 235.697 152.066H230.688C230.446 152.418 230.24 152.8 230.073 153.214C229.906 153.626 229.769 154.052 229.664 154.488C229.559 154.924 229.477 155.364 229.426 155.808C229.372 156.252 229.346 156.68 229.346 157.092C229.346 158.04 229.46 158.886 229.688 159.628C229.916 160.37 230.188 161.024 230.507 161.59V167.35C230.507 168.726 230.644 169.932 230.916 170.964C231.19 171.996 231.557 172.892 232.02 173.648C232.482 174.406 233.026 175.036 233.647 175.54C234.27 176.044 234.925 176.446 235.616 176.744C236.306 177.042 237.017 177.252 237.745 177.376C238.474 177.498 239.18 177.56 239.863 177.56C240.486 177.56 241.032 177.518 241.502 177.434C241.973 177.35 242.383 177.246 242.733 177.124C243.082 177.002 243.382 176.86 243.632 176.7C243.882 176.54 244.473 176.214 245.465 175.214C245.299 175.046 246.351 174.798 246.259 174.614C246.168 174.43 246.855 173.182 246.855 173.014C246.855 172.51 244.015 174.418 244.531 174.418C245.017 175.474 245.741 176.262 246.706 176.782C247.67 177.302 248.712 177.562 249.836 177.562C250.715 177.562 251.532 177.432 252.283 177.172C253.035 176.912 253.769 176.686 254.791 175.816C255.946 174.832 256.635 173.36 256.776 173.016C257.486 171.27 256.776 171.978 256.776 170.816C256.776 170.724 255.982 170.66 255.982 170.484C255.982 170.308 256.395 167.738 256.379 167.616C255.585 168.016 254.944 167.724 254.593 167.016H254.595Z" fill="#090909"/>
<path d="M279.047 159.192C278.48 157.658 277.688 156.342 276.674 155.244C275.659 154.146 274.459 153.298 273.073 152.704C271.688 152.11 270.17 151.812 268.521 151.812C267.386 151.812 266.375 151.942 265.488 152.202C264.603 152.462 263.849 152.744 263.228 153.048C263.107 152.972 263.015 152.876 262.956 152.762C262.894 152.648 262.865 152.544 262.865 152.454C262.865 152.226 263.015 152.02 263.319 151.836C263.621 151.652 264.012 151.49 264.488 151.344C264.964 151.2 265.506 151.078 266.111 150.978C266.717 150.878 267.33 150.814 267.951 150.784V148.748C267.951 147.94 267.773 147.248 267.417 146.676C267.062 146.104 266.592 145.638 266.01 145.28C265.427 144.922 264.762 144.658 264.012 144.49C263.261 144.322 262.493 144.238 261.706 144.238C260.63 144.238 259.582 144.38 258.56 144.662C257.538 144.944 256.679 145.292 255.982 145.704V171.818C255.982 172.566 256.133 173.226 256.436 173.798C256.74 174.37 257.147 174.87 257.663 175.298C258.177 175.726 258.778 176.084 259.469 176.374C260.158 176.664 260.892 176.896 261.672 177.072C262.452 177.248 263.246 177.374 264.057 177.45C264.867 177.526 265.659 177.564 266.431 177.564C268.338 177.564 270.114 177.312 271.756 176.808C273.399 176.304 274.822 175.518 276.025 174.45C277.227 173.382 278.174 172.012 278.863 170.342C279.551 168.672 279.897 166.662 279.897 164.312C279.897 162.436 279.613 160.73 279.045 159.196L279.047 159.192ZM268.453 164.078C268.453 164.764 268.441 165.344 268.42 165.818C268.398 166.292 268.348 166.68 268.273 166.986C268.197 167.292 268.102 167.49 267.989 167.58C267.876 167.672 267.743 167.718 267.592 167.718C267.455 167.718 267.346 167.696 267.262 167.65C267.179 167.604 267.108 167.55 267.046 167.49C267.062 167.246 267.084 167.018 267.114 166.804C267.143 166.59 267.167 166.35 267.181 166.084C267.197 165.818 267.211 165.504 267.227 165.146C267.243 164.788 267.249 164.356 267.249 163.854V160.788C267.354 160.682 267.513 160.628 267.725 160.628C268.013 160.628 268.205 160.716 268.304 160.892C268.404 161.068 268.451 161.354 268.451 161.75V164.084L268.453 164.078Z" fill="#090909"/>
</g>
<defs>
<clipPath id="clip0_666_3848">
<rect width="258" height="69" fill="white" transform="translate(31 126)"/>
</clipPath>
</defs>
</svg>
