<svg width="258" height="95" viewBox="0 0 258 95" fill="none" xmlns="http://www.w3.org/2000/svg">
<g clip-path="url(#clip0_1229_4685)">
<path d="M120.609 53.66C117.223 53.66 114.195 55.19 112.159 57.598C110.122 55.19 107.094 53.66 103.708 53.66C97.5796 53.66 92.6101 58.668 92.6101 64.844C92.6101 71.02 97.5796 76.028 103.708 76.028C107.094 76.028 110.122 74.498 112.159 72.09C114.195 74.498 117.223 76.028 120.609 76.028C126.738 76.028 131.707 71.02 131.707 64.844C131.707 58.668 126.738 53.66 120.609 53.66Z" fill="white"/>
<path d="M154.558 55.574C153.482 54.43 152.19 53.542 150.682 52.908C149.174 52.274 147.505 51.956 145.675 51.956C143.845 51.956 142.176 52.252 140.668 52.842C139.159 53.432 137.863 54.28 136.782 55.386C135.698 56.492 134.857 57.832 134.257 59.402C133.946 60.22 133.715 61.09 133.567 62.008V50.51C133.567 49.548 133.412 48.698 133.1 47.958C132.791 47.218 132.358 46.592 131.806 46.082C131.253 45.572 130.6 45.186 129.841 44.926C129.083 44.666 128.268 44.536 127.388 44.536C126.587 44.536 125.87 44.608 125.243 44.754C124.614 44.9 124.046 45.098 123.54 45.35C123.032 45.602 122.576 45.904 122.167 46.254C121.758 46.606 121.379 46.986 121.032 47.398C121.137 47.626 121.228 47.898 121.304 48.21C121.379 48.522 121.443 48.844 121.496 49.172C121.55 49.5 121.587 49.836 121.609 50.18C121.631 50.524 121.643 50.84 121.643 51.13C122.157 51.13 122.703 51.172 123.278 51.256C123.854 51.34 124.38 51.454 124.856 51.6C125.332 51.746 125.727 51.916 126.037 52.116C126.347 52.314 126.503 52.536 126.503 52.78C126.503 52.856 126.482 52.944 126.436 53.044C126.39 53.144 126.329 53.232 126.253 53.308L126.303 53.39C124.556 52.478 122.574 51.96 120.47 51.96C117.229 51.96 114.272 53.186 112.028 55.198C112.119 55.116 112.21 55.036 112.305 54.956C110.097 53.086 107.249 51.96 104.139 51.96C99.463 51.96 95.3806 54.506 93.1737 58.298C93.2491 57.808 93.2908 57.334 93.2908 56.878C93.2908 56.054 93.1816 55.226 92.9614 54.394C92.7411 53.562 92.4116 52.612 91.973 51.94H88.0435V46.532C87.2556 46.364 86.5332 46.242 85.8743 46.166C85.2154 46.09 84.5605 46.052 83.9095 46.052C83.076 46.052 82.2583 46.098 81.4565 46.19C80.6548 46.282 80.0098 46.388 79.5255 46.51C79.4044 46.862 79.2596 47.3 79.0948 47.826C78.9281 48.352 78.7535 48.898 78.5729 49.462C78.3903 50.026 78.2097 50.568 78.0271 51.086C77.914 51.41 77.8088 51.692 77.7136 51.938H72.7064V46.53C71.9185 46.362 71.1961 46.24 70.5372 46.164C69.8783 46.088 69.2234 46.05 68.5724 46.05C67.7389 46.05 66.9212 46.096 66.1194 46.188C65.3176 46.28 64.6726 46.386 64.1884 46.508C64.0673 46.86 63.9225 47.298 63.7577 47.824C63.591 48.35 63.4164 48.896 63.2358 49.46C63.0532 50.024 62.8726 50.566 62.69 51.084C62.5074 51.602 62.3487 52.022 62.2137 52.342C61.7295 52.708 61.1718 53.12 60.5447 53.578C59.9155 54.036 59.2844 54.462 58.6474 54.86C58.5561 55.242 58.4846 55.718 58.431 56.29C58.3894 56.736 58.3655 57.14 58.3556 57.506C57.9309 56.804 57.4447 56.158 56.893 55.572C55.8173 54.428 54.5253 53.54 53.017 52.906C51.5087 52.272 49.8396 51.954 48.0098 51.954C46.18 51.954 44.5109 52.25 43.0026 52.84C41.4943 53.43 40.1984 54.278 39.1168 55.384C38.0332 56.49 37.1917 57.83 36.5923 59.4C36.4991 59.642 36.4177 59.89 36.3383 60.142V52.18C36.3383 51.218 36.1478 50.418 35.7707 49.776C35.3916 49.136 34.8895 48.624 34.2604 48.242C33.6313 47.86 32.9128 47.59 32.1031 47.43C31.2934 47.27 30.4638 47.19 29.6164 47.19C29.0706 47.19 28.511 47.232 27.9354 47.316C27.3599 47.4 26.8002 47.526 26.2545 47.694C25.7087 47.862 25.1907 48.072 24.6985 48.324C24.2063 48.576 23.7638 48.87 23.3688 49.206V50.464L25.8218 54.72C25.9588 54.948 26.0858 55.182 26.2088 55.418C26.3299 55.654 26.3894 55.856 26.3894 56.024C26.3894 56.252 26.318 56.416 26.1731 56.516C26.0282 56.616 25.8814 56.664 25.7305 56.664C25.2304 55.824 24.7422 55.004 24.2659 54.204C23.7896 53.404 23.3311 52.648 22.8925 51.938C22.4539 51.228 22.0372 50.58 21.6442 49.992C21.2512 49.404 20.8881 48.898 20.5546 48.47C20.116 48.12 19.471 47.822 18.6236 47.578C17.7762 47.334 16.8514 47.212 15.8531 47.212C14.9739 47.212 14.1503 47.284 13.3783 47.43C12.6063 47.576 11.9315 47.77 11.3579 48.014C10.7824 48.258 10.3279 48.552 9.99451 48.896C9.66109 49.24 9.49438 49.602 9.49438 49.984V72.916C9.49438 73.68 9.66109 74.35 9.99451 74.93C10.3279 75.51 10.7963 75.994 11.4016 76.384C12.0069 76.774 12.7253 77.068 13.5589 77.266C14.3904 77.464 15.2994 77.564 16.2838 77.564C17.1471 77.564 17.9111 77.502 18.578 77.38C19.2448 77.258 19.8303 77.11 20.3383 76.934C20.8464 76.758 21.2731 76.572 21.6224 76.374C21.9697 76.176 22.2574 76 22.4857 75.848V74.636L19.6477 70.012C19.4512 69.692 19.2924 69.42 19.1714 69.2C19.0503 68.98 18.9888 68.754 18.9888 68.524C18.9888 68.34 19.0344 68.184 19.1257 68.054C19.217 67.924 19.3897 67.844 19.6477 67.814C19.995 68.394 20.3582 69.008 20.7372 69.656C21.1163 70.304 21.5251 70.988 21.9637 71.704C22.4023 72.422 22.8826 73.168 23.4065 73.946C23.9305 74.724 24.5159 75.534 25.1669 76.372C25.4388 76.54 25.7643 76.692 26.1433 76.83C26.5224 76.968 26.9292 77.09 27.3698 77.196C27.8084 77.302 28.2748 77.382 28.767 77.436C29.2592 77.49 29.7474 77.516 30.2316 77.516C31.0175 77.516 31.7796 77.454 32.5139 77.332C33.2482 77.21 33.8992 77.008 34.4668 76.726C35.0344 76.444 35.4889 76.066 35.8302 75.594C36.1716 75.122 36.3403 74.542 36.3403 73.854V69.4C36.4375 69.716 36.5407 70.024 36.6598 70.32C37.3048 71.928 38.178 73.27 39.2835 74.348C40.3889 75.426 41.6908 76.23 43.1912 76.76C44.6915 77.292 46.2991 77.556 48.0118 77.556C49.9289 77.556 51.6496 77.26 53.1718 76.67C54.694 76.08 55.982 75.236 57.0359 74.136C58.0897 73.038 58.8954 71.706 59.4511 70.142C60.0068 68.578 60.2847 66.822 60.2847 64.876C60.2847 63.748 60.1755 62.676 59.9651 61.654H63.9383C63.9681 61.746 63.984 61.838 63.984 61.928C63.984 62.156 63.8927 62.34 63.7121 62.478C63.5295 62.616 63.2417 62.684 62.8488 62.684H61.4417V69.298C61.4417 70.702 61.6382 71.918 62.0331 72.948C62.4261 73.978 62.9877 74.836 63.7141 75.522C64.4405 76.208 65.3077 76.72 66.3139 77.056C67.3201 77.392 68.4375 77.56 69.664 77.56C72.1011 77.56 73.9785 77.004 75.2963 75.89C76.3243 75.02 76.9495 73.842 77.1757 72.36C77.2353 72.562 77.2988 72.76 77.3702 72.95C77.7632 73.98 78.3248 74.838 79.0512 75.524C79.7776 76.21 80.6448 76.722 81.651 77.058C82.6572 77.394 83.7746 77.562 85.0011 77.562C87.4382 77.562 89.3156 77.006 90.6334 75.892C91.9512 74.778 92.6101 73.162 92.6101 71.04C92.6101 70.69 92.5863 70.338 92.5406 69.988C94.5252 74.452 98.9708 77.564 104.139 77.564C107.249 77.564 110.097 76.436 112.305 74.566C114.514 76.436 117.362 77.564 120.472 77.564C122.252 77.564 123.947 77.194 125.487 76.526C125.63 76.626 125.775 76.722 125.926 76.806C126.388 77.066 126.88 77.256 127.402 77.378C127.924 77.5 128.458 77.562 129.004 77.562C129.776 77.562 130.532 77.432 131.274 77.172C132.017 76.912 132.679 76.512 133.261 75.97C133.844 75.428 134.317 74.738 134.68 73.898C134.918 73.348 135.077 72.728 135.158 72.038C135.666 72.91 136.262 73.68 136.948 74.348C138.054 75.426 139.356 76.23 140.858 76.76C142.358 77.292 143.966 77.556 145.679 77.556C147.596 77.556 149.316 77.26 150.839 76.67C152.361 76.08 153.649 75.236 154.703 74.136C155.757 73.038 156.562 71.706 157.118 70.142C157.674 68.578 157.952 66.822 157.952 64.876C157.952 62.93 157.656 61.25 157.062 59.664C156.469 58.078 155.635 56.714 154.56 55.57L154.558 55.574ZM48.6727 67.488C48.6727 67.872 48.625 68.148 48.5298 68.318C48.4345 68.488 48.248 68.572 47.9701 68.572C47.7657 68.572 47.6109 68.52 47.5097 68.416V64.544C47.5097 64.058 47.5018 63.64 47.4879 63.294C47.474 62.948 47.4581 62.644 47.4442 62.386C47.4303 62.128 47.4065 61.896 47.3787 61.688C47.3489 61.482 47.3271 61.26 47.3132 61.024C47.3708 60.966 47.4402 60.914 47.5216 60.87C47.603 60.826 47.7082 60.804 47.8391 60.804C47.986 60.804 48.113 60.848 48.2242 60.936C48.3333 61.024 48.4246 61.216 48.498 61.512C48.5715 61.808 48.6191 62.184 48.6409 62.64C48.6628 63.098 48.6747 63.658 48.6747 64.322V67.486L48.6727 67.488ZM79.0512 62.48C78.8686 62.618 78.5808 62.686 78.1879 62.686H76.7808V68.018H75.8202C75.0482 68.018 74.4489 67.794 74.0261 67.342C73.6014 66.892 73.3911 66.14 73.3911 65.088V61.632H74.1869C74.1869 61.632 74.1909 61.648 74.1928 61.654H79.2794C79.3092 61.746 79.3251 61.838 79.3251 61.928C79.3251 62.156 79.2338 62.34 79.0532 62.478L79.0512 62.48ZM91.1554 68.018C90.3833 68.018 89.784 67.794 89.3613 67.342C88.9366 66.892 88.7262 66.14 88.7262 65.088V61.632H91.8162C91.5662 62.632 91.4332 63.68 91.4332 64.758C91.4332 65.836 91.5781 66.976 91.85 68.016H91.1573L91.1554 68.018ZM104.137 75.612C98.1888 75.612 93.3662 70.752 93.3662 64.758C93.3662 58.764 98.1888 53.904 104.137 53.904C104.72 53.904 105.292 53.952 105.849 54.042C102.769 54.89 100.505 57.726 100.505 61.1C100.505 65.14 103.756 68.416 107.765 68.416C107.941 68.416 108.114 68.408 108.287 68.396C108.814 70.192 109.719 71.82 110.914 73.192C109.063 74.704 106.707 75.612 104.139 75.612H104.137ZM120.468 75.612C114.52 75.612 109.698 70.752 109.698 64.758C109.698 58.764 114.52 53.904 120.468 53.904C121.052 53.904 121.623 53.952 122.181 54.042C119.101 54.89 116.836 57.726 116.836 61.1C116.836 65.14 120.087 68.416 124.096 68.416C127.444 68.416 130.26 66.132 131.1 63.026C131.189 63.59 131.239 64.168 131.239 64.758C131.239 70.752 126.416 75.612 120.468 75.612ZM146.334 67.49C146.334 67.874 146.286 68.15 146.191 68.32C146.095 68.49 145.909 68.574 145.631 68.574C145.427 68.574 145.272 68.522 145.171 68.418V64.546C145.171 64.06 145.163 63.642 145.149 63.296C145.135 62.95 145.119 62.646 145.105 62.388C145.091 62.13 145.067 61.898 145.04 61.69C145.01 61.484 144.988 61.262 144.974 61.026C145.032 60.968 145.101 60.916 145.183 60.872C145.264 60.828 145.369 60.806 145.5 60.806C145.647 60.806 145.774 60.85 145.885 60.938C145.994 61.026 146.086 61.218 146.159 61.514C146.232 61.81 146.28 62.186 146.302 62.642C146.324 63.1 146.336 63.66 146.336 64.324V67.488L146.334 67.49Z" fill="#090909"/>
<path d="M183.192 54.0101C182.235 53.2841 181.108 52.7301 179.812 52.3521C178.516 51.9741 177.125 51.7841 175.638 51.7841C174.049 51.7841 172.505 52.0441 171.01 52.5641C169.516 53.0841 168.186 53.8661 167.023 54.9121C165.86 55.9581 164.925 57.2761 164.219 58.8621C163.512 60.4501 163.159 62.3041 163.159 64.4261C163.159 66.4001 163.449 68.1961 164.032 69.8121C164.614 71.4301 165.449 72.8101 166.539 73.9521C167.629 75.0941 168.946 75.9821 170.492 76.6121C172.038 77.2421 173.783 77.5581 175.728 77.5581C177.407 77.5581 178.863 77.3421 180.102 76.9121C181.338 76.4821 182.366 75.9261 183.184 75.2421C184.002 74.5601 184.613 73.7921 185.018 72.9381C185.423 72.0841 185.625 71.2281 185.625 70.3681C185.625 69.4341 185.518 68.6241 185.306 67.9421C185.091 67.2601 184.831 66.6801 184.522 66.2061C184.049 66.5181 183.45 66.7921 182.722 67.0301C181.993 67.2681 181.09 67.3861 180.017 67.3861C179.014 67.3861 178.131 67.2341 177.367 66.9301C176.601 66.6261 175.96 66.2481 175.446 65.7941C174.93 65.3421 174.537 64.8481 174.265 64.3141C173.993 63.7801 173.856 63.2761 173.856 62.8001C173.856 62.5181 173.948 62.3301 174.132 62.2321C174.317 62.1361 174.549 62.0881 174.829 62.0881C174.918 62.7261 175.109 63.3081 175.402 63.8361C175.696 64.3621 176.075 64.8161 176.539 65.1941C177.004 65.5721 177.548 65.8661 178.175 66.0741C178.8 66.2821 179.489 66.3861 180.241 66.3861C181.138 66.3861 181.959 66.2381 182.704 65.9401C183.448 65.6441 184.085 65.2241 184.615 64.6821C185.145 64.1401 185.558 63.4941 185.851 62.7461C186.145 61.9981 186.294 61.1701 186.294 60.2641C186.294 58.9141 186.018 57.7161 185.466 56.6701C184.915 55.6241 184.158 54.7381 183.202 54.0101H183.192Z" fill="#090909"/>
<path d="M198.213 66.728C197.987 65.972 197.872 65.068 197.872 64.016V49.528C197.872 48.78 197.755 48.102 197.521 47.492C197.287 46.882 196.92 46.36 196.419 45.924C195.919 45.49 195.28 45.15 194.5 44.906C193.72 44.662 192.786 44.54 191.696 44.54C191.029 44.54 190.402 44.598 189.811 44.712C189.219 44.826 188.693 44.964 188.233 45.124C187.77 45.284 187.374 45.448 187.04 45.616C186.707 45.784 186.465 45.914 186.314 46.006V69.784C186.314 71.248 186.506 72.476 186.893 73.468C187.28 74.46 187.79 75.26 188.425 75.87C189.06 76.48 189.795 76.916 190.628 77.174C191.46 77.434 192.323 77.564 193.216 77.564C195.199 77.564 197.06 77.024 198.444 75.934C199.932 74.76 200.772 73.018 200.573 70.418C200.565 70.326 199.978 70.794 199.978 70.618C199.978 70.442 200.192 67.74 200.176 67.618C199.184 67.818 198.44 67.486 198.213 66.73V66.728Z" fill="#090909"/>
<path d="M223.595 67.016C223.396 66.616 223.396 66.416 223.321 65.586V53.632C222.835 53.096 222.114 52.65 221.158 52.29C220.201 51.93 219.064 51.75 217.742 51.75C216.982 51.75 216.311 51.796 215.728 51.888C215.142 51.98 214.616 52.094 214.146 52.232C213.676 52.37 213.261 52.526 212.906 52.702C212.548 52.878 212.227 53.05 211.937 53.218V64.552C211.937 65.134 211.955 65.608 211.995 65.974C212.032 66.342 212.09 66.654 212.165 66.914C212.09 66.976 212.009 67.028 211.927 67.074C211.844 67.12 211.725 67.142 211.574 67.142C211.332 67.142 211.129 66.986 210.971 66.672C210.812 66.358 210.732 65.774 210.732 64.916V57.482C210.732 56.534 210.584 55.72 210.288 55.038C209.992 54.358 209.577 53.796 209.047 53.352C208.516 52.908 207.879 52.584 207.134 52.376C206.39 52.17 205.578 52.066 204.697 52.066H199.688C199.446 52.418 199.24 52.8 199.073 53.214C198.906 53.626 198.769 54.052 198.664 54.488C198.559 54.924 198.477 55.364 198.426 55.808C198.372 56.252 198.346 56.68 198.346 57.092C198.346 58.04 198.46 58.886 198.688 59.628C198.916 60.37 199.188 61.024 199.507 61.59V67.35C199.507 68.726 199.644 69.932 199.916 70.964C200.19 71.996 200.557 72.892 201.02 73.648C201.482 74.406 202.026 75.036 202.647 75.54C203.27 76.044 203.925 76.446 204.616 76.744C205.306 77.042 206.017 77.252 206.745 77.376C207.474 77.498 208.18 77.56 208.863 77.56C209.486 77.56 210.032 77.518 210.502 77.434C210.973 77.35 211.383 77.246 211.733 77.124C212.082 77.002 212.382 76.86 212.632 76.7C212.882 76.54 213.473 76.214 214.465 75.214C214.299 75.046 215.351 74.798 215.259 74.614C215.168 74.43 215.855 73.182 215.855 73.014C215.855 72.51 213.015 74.418 213.531 74.418C214.017 75.474 214.741 76.262 215.706 76.782C216.67 77.302 217.712 77.562 218.836 77.562C219.715 77.562 220.532 77.432 221.283 77.172C222.035 76.912 222.769 76.686 223.791 75.816C224.946 74.832 225.635 73.36 225.776 73.016C226.486 71.27 225.776 71.978 225.776 70.816C225.776 70.724 224.982 70.66 224.982 70.484C224.982 70.308 225.395 67.738 225.379 67.616C224.585 68.016 223.944 67.724 223.593 67.016H223.595Z" fill="#090909"/>
<path d="M248.047 59.192C247.48 57.658 246.688 56.342 245.674 55.244C244.659 54.146 243.459 53.298 242.073 52.704C240.688 52.11 239.17 51.812 237.521 51.812C236.386 51.812 235.375 51.942 234.488 52.202C233.603 52.462 232.849 52.744 232.228 53.048C232.107 52.972 232.015 52.876 231.956 52.762C231.894 52.648 231.865 52.544 231.865 52.454C231.865 52.226 232.015 52.02 232.319 51.836C232.621 51.652 233.012 51.49 233.488 51.344C233.964 51.2 234.506 51.078 235.111 50.978C235.717 50.878 236.33 50.814 236.951 50.784V48.748C236.951 47.94 236.773 47.248 236.417 46.676C236.062 46.104 235.592 45.638 235.01 45.28C234.427 44.922 233.762 44.658 233.012 44.49C232.261 44.322 231.493 44.238 230.706 44.238C229.63 44.238 228.582 44.38 227.56 44.662C226.538 44.944 225.679 45.292 224.982 45.704V71.818C224.982 72.566 225.133 73.226 225.436 73.798C225.74 74.37 226.147 74.87 226.663 75.298C227.177 75.726 227.778 76.084 228.469 76.374C229.158 76.664 229.892 76.896 230.672 77.072C231.452 77.248 232.246 77.374 233.057 77.45C233.867 77.526 234.659 77.564 235.431 77.564C237.338 77.564 239.114 77.312 240.756 76.808C242.399 76.304 243.822 75.518 245.025 74.45C246.227 73.382 247.174 72.012 247.863 70.342C248.551 68.672 248.897 66.662 248.897 64.312C248.897 62.436 248.613 60.73 248.045 59.196L248.047 59.192ZM237.453 64.078C237.453 64.764 237.441 65.344 237.42 65.818C237.398 66.292 237.348 66.68 237.273 66.986C237.197 67.292 237.102 67.49 236.989 67.58C236.876 67.672 236.743 67.718 236.592 67.718C236.455 67.718 236.346 67.696 236.262 67.65C236.179 67.604 236.108 67.55 236.046 67.49C236.062 67.246 236.084 67.018 236.114 66.804C236.143 66.59 236.167 66.35 236.181 66.084C236.197 65.818 236.211 65.504 236.227 65.146C236.243 64.788 236.249 64.356 236.249 63.854V60.788C236.354 60.682 236.513 60.628 236.725 60.628C237.013 60.628 237.205 60.716 237.304 60.892C237.404 61.068 237.451 61.354 237.451 61.75V64.084L237.453 64.078Z" fill="#090909"/>
</g>
<path d="M65.24 5.52H66.056L65.576 8.464H64.312L65.24 5.52ZM78.5505 5.152V15.488H77.3505V5.152H78.5505ZM80.6465 9.44V10.432H78.1825V9.44H80.6465ZM79.2065 17.856V18.848H69.8785V17.856H79.2065ZM71.0625 14.432V18.24H69.8785V14.432H71.0625ZM71.6225 6.16C72.3052 6.16 72.9238 6.30933 73.4785 6.608C74.0332 6.896 74.4652 7.30133 74.7745 7.824C75.0945 8.34667 75.2545 8.93867 75.2545 9.6C75.2545 10.2613 75.0945 10.8533 74.7745 11.376C74.4652 11.8987 74.0332 12.3093 73.4785 12.608C72.9238 12.896 72.3052 13.04 71.6225 13.04C70.9398 13.04 70.3212 12.896 69.7665 12.608C69.2118 12.3093 68.7745 11.8987 68.4545 11.376C68.1452 10.8533 67.9905 10.2613 67.9905 9.6C67.9905 8.93867 68.1452 8.34667 68.4545 7.824C68.7745 7.30133 69.2118 6.896 69.7665 6.608C70.3212 6.30933 70.9398 6.16 71.6225 6.16ZM71.6225 7.2C71.1532 7.2 70.7318 7.30667 70.3585 7.52C69.9852 7.72267 69.6918 8.00533 69.4785 8.368C69.2652 8.73067 69.1585 9.14133 69.1585 9.6C69.1585 10.0587 69.2652 10.4693 69.4785 10.832C69.6918 11.1947 69.9852 11.4773 70.3585 11.68C70.7318 11.8827 71.1532 11.984 71.6225 11.984C72.0918 11.984 72.5132 11.8827 72.8865 11.68C73.2598 11.4773 73.5532 11.1947 73.7665 10.832C73.9905 10.4693 74.1025 10.0587 74.1025 9.6C74.1025 9.14133 73.9905 8.73067 73.7665 8.368C73.5532 8.00533 73.2598 7.72267 72.8865 7.52C72.5132 7.30667 72.0918 7.2 71.6225 7.2ZM83.1909 8.496H82.3429L82.1989 5.552H83.3349L83.1909 8.496ZM95.8764 5.168V19.168H94.6764V5.168H95.8764ZM98.1964 10.96V11.968H95.5884V10.96H98.1964ZM93.3324 7.424V8.416H85.0444V7.424H93.3324ZM89.2524 9.616C89.903 9.616 90.4844 9.75467 90.9964 10.032C91.5084 10.2987 91.9084 10.6773 92.1964 11.168C92.495 11.648 92.6444 12.1973 92.6444 12.816C92.6444 13.4347 92.495 13.9893 92.1964 14.48C91.9084 14.96 91.5084 15.3387 90.9964 15.616C90.4844 15.8827 89.9084 16.016 89.2684 16.016C88.6177 16.016 88.031 15.8827 87.5084 15.616C86.9964 15.3387 86.591 14.96 86.2924 14.48C86.0044 13.9893 85.8604 13.4347 85.8604 12.816C85.8604 12.1973 86.0044 11.648 86.2924 11.168C86.591 10.6773 86.9964 10.2987 87.5084 10.032C88.031 9.75467 88.6124 9.616 89.2524 9.616ZM89.2524 10.608C88.8257 10.608 88.4417 10.704 88.1004 10.896C87.759 11.088 87.4924 11.3493 87.3004 11.68C87.1084 12.0107 87.0124 12.3893 87.0124 12.816C87.0124 13.2427 87.1084 13.6213 87.3004 13.952C87.4924 14.2827 87.759 14.544 88.1004 14.736C88.4417 14.9173 88.8257 15.008 89.2524 15.008C89.679 15.008 90.063 14.9173 90.4044 14.736C90.7457 14.544 91.0124 14.2827 91.2044 13.952C91.3964 13.6107 91.4924 13.232 91.4924 12.816C91.4924 12.4 91.3964 12.0267 91.2044 11.696C91.0124 11.3547 90.7457 11.088 90.4044 10.896C90.063 10.704 89.679 10.608 89.2524 10.608ZM89.8444 5.328V7.888H88.6284V5.328H89.8444ZM110.565 5.168V19.168H109.365V5.168H110.565ZM106.437 6.672C106.437 8.05867 106.213 9.36 105.765 10.576C105.317 11.7813 104.607 12.8907 103.637 13.904C102.677 14.9173 101.439 15.792 99.9248 16.528L99.2848 15.568C100.629 14.928 101.743 14.1707 102.629 13.296C103.514 12.4107 104.17 11.4347 104.597 10.368C105.034 9.29067 105.253 8.12267 105.253 6.864V6.672H106.437ZM105.765 6.672V7.664H99.9088V6.672H105.765ZM122.189 11.68V14.32H121.021V11.68H122.189ZM120.157 13.904V15.456H126.925V13.904H128.125V18.976H118.973V13.904H120.157ZM120.157 18H126.925V16.384H120.157V18ZM128.125 5.168V13.2H126.925V5.168H128.125ZM116.781 11.328C118.594 11.328 120.237 11.3067 121.709 11.264C123.191 11.2107 124.61 11.0933 125.965 10.912L126.061 11.792C124.674 12.016 123.255 12.16 121.805 12.224C120.354 12.288 118.733 12.32 116.941 12.32L116.781 11.328ZM121.805 5.504V6.224C121.805 7.216 121.453 8.08533 120.749 8.832C120.045 9.57867 119.111 10.1013 117.949 10.4L117.421 9.488C118.082 9.328 118.674 9.088 119.197 8.768C119.719 8.43733 120.125 8.05333 120.413 7.616C120.701 7.17867 120.845 6.71467 120.845 6.224V5.504H121.805ZM122.077 5.504V6.224C122.077 6.928 122.391 7.55733 123.021 8.112C123.661 8.66667 124.482 9.056 125.485 9.28L124.973 10.208C123.81 9.94133 122.871 9.45067 122.157 8.736C121.453 8.02133 121.101 7.184 121.101 6.224V5.504H122.077ZM135.469 7.152V9.504C135.469 10.4533 135.288 11.3973 134.925 12.336C134.562 13.2747 134.072 14.1067 133.453 14.832C132.845 15.5573 132.178 16.1013 131.453 16.464L130.765 15.52C131.416 15.2 132.029 14.72 132.605 14.08C133.181 13.4293 133.64 12.6987 133.981 11.888C134.322 11.0773 134.493 10.2827 134.493 9.504V7.152H135.469ZM135.693 7.152V9.504C135.693 10.272 135.864 11.04 136.205 11.808C136.557 12.5653 137.021 13.2427 137.597 13.84C138.173 14.4267 138.797 14.8693 139.469 15.168L138.781 16.128C138.045 15.776 137.362 15.264 136.733 14.592C136.114 13.9093 135.624 13.1253 135.261 12.24C134.898 11.3547 134.717 10.4427 134.717 9.504V7.152H135.693ZM139.021 6.608V7.616H131.197V6.608H139.021ZM142.173 5.168V19.168H140.973V5.168H142.173ZM152.309 5.968C153.002 5.968 153.621 6.10667 154.165 6.384C154.72 6.66133 155.152 7.04533 155.461 7.536C155.77 8.02667 155.925 8.58133 155.925 9.2C155.925 9.82933 155.77 10.3893 155.461 10.88C155.152 11.3707 154.72 11.7547 154.165 12.032C153.621 12.2987 153.002 12.432 152.309 12.432C151.637 12.432 151.024 12.2987 150.469 12.032C149.925 11.7547 149.498 11.3707 149.189 10.88C148.88 10.3787 148.725 9.81867 148.725 9.2C148.725 8.58133 148.88 8.02667 149.189 7.536C149.498 7.04533 149.925 6.66133 150.469 6.384C151.024 6.10667 151.637 5.968 152.309 5.968ZM152.309 6.976C151.85 6.976 151.434 7.072 151.061 7.264C150.698 7.456 150.41 7.72267 150.197 8.064C149.994 8.39467 149.893 8.77333 149.893 9.2C149.893 9.62667 149.994 10.0107 150.197 10.352C150.41 10.6933 150.698 10.96 151.061 11.152C151.434 11.344 151.85 11.44 152.309 11.44C152.778 11.44 153.194 11.344 153.557 11.152C153.93 10.96 154.224 10.6933 154.437 10.352C154.65 10.0107 154.757 9.62667 154.757 9.2C154.757 8.77333 154.65 8.39467 154.437 8.064C154.224 7.72267 153.93 7.456 153.557 7.264C153.194 7.072 152.778 6.976 152.309 6.976ZM159.285 5.168V12.144H158.085V5.168H159.285ZM161.381 8.336V9.344H158.757V8.336H161.381ZM150.597 17.808C151.109 17.808 151.664 17.7707 152.261 17.696C152.858 17.6213 153.429 17.4933 153.973 17.312L154.181 18.288C153.573 18.4907 152.965 18.624 152.357 18.688C151.76 18.7627 151.173 18.8 150.597 18.8H149.925V17.808H150.597ZM151.093 13.696V18.16H149.925V13.696H151.093ZM160.693 13.776V14.672H153.669V13.776H160.693ZM157.189 15.2C157.946 15.2 158.565 15.3813 159.045 15.744C159.525 16.096 159.765 16.5707 159.765 17.168C159.765 17.7653 159.525 18.24 159.045 18.592C158.565 18.9547 157.946 19.136 157.189 19.136C156.421 19.136 155.797 18.9547 155.317 18.592C154.848 18.24 154.613 17.7653 154.613 17.168C154.613 16.5707 154.848 16.096 155.317 15.744C155.797 15.3813 156.421 15.2 157.189 15.2ZM157.189 16.048C156.741 16.048 156.378 16.1547 156.101 16.368C155.824 16.5707 155.685 16.8373 155.685 17.168C155.685 17.4987 155.824 17.7707 156.101 17.984C156.378 18.1867 156.741 18.288 157.189 18.288C157.637 18.288 158 18.1867 158.277 17.984C158.554 17.7707 158.693 17.4987 158.693 17.168C158.693 16.8373 158.554 16.5707 158.277 16.368C158 16.1547 157.637 16.048 157.189 16.048ZM157.781 12.496V14.496H156.597V12.496H157.781ZM168.741 5.424C170.288 5.424 171.493 5.632 172.357 6.048C173.221 6.464 173.653 7.06133 173.653 7.84C173.653 8.61867 173.221 9.22133 172.357 9.648C171.493 10.064 170.288 10.272 168.741 10.272C167.195 10.272 165.989 10.064 165.125 9.648C164.261 9.22133 163.829 8.61867 163.829 7.84C163.829 7.06133 164.261 6.464 165.125 6.048C165.989 5.632 167.195 5.424 168.741 5.424ZM168.741 6.32C167.589 6.32 166.688 6.45333 166.037 6.72C165.387 6.98667 165.061 7.36 165.061 7.84C165.061 8.32 165.381 8.69333 166.021 8.96C166.672 9.22667 167.579 9.36 168.741 9.36C169.904 9.36 170.805 9.22667 171.445 8.96C172.096 8.69333 172.421 8.32 172.421 7.84C172.421 7.36 172.096 6.98667 171.445 6.72C170.795 6.45333 169.893 6.32 168.741 6.32ZM175.061 11.248V12.224H162.421V11.248H175.061ZM173.429 13.456V16.56H165.173V18.304H164.005V15.68H172.261V14.384H163.957V13.456H173.429ZM173.861 18.064V19.008H164.005V18.064H173.861ZM189.293 5.472V18.464H188.157V5.472H189.293ZM191.421 10.912V11.888H188.813V10.912H191.421ZM181.069 14.496C181.464 14.496 181.869 14.48 182.285 14.448C182.712 14.4053 183.165 14.3253 183.645 14.208L183.741 15.216C183.229 15.3333 182.765 15.408 182.349 15.44C181.944 15.472 181.517 15.488 181.069 15.488H180.525V14.496H181.069ZM183.517 6.944V7.92H181.645V15.056H180.525V6.944H183.517ZM184.701 14.496C185.192 14.496 185.661 14.4747 186.109 14.432C186.568 14.3893 187.037 14.2987 187.517 14.16L187.645 15.168C187.122 15.3067 186.632 15.3973 186.173 15.44C185.725 15.472 185.234 15.488 184.701 15.488H184.141V14.496H184.701ZM187.213 6.944V7.92H185.245V15.024H184.141V6.944H187.213ZM192.141 5.168V19.168H190.989V5.168H192.141Z" fill="#494949"/>
<defs>
<clipPath id="clip0_1229_4685">
<rect width="258" height="69" fill="white" transform="translate(0 26)"/>
</clipPath>
</defs>
</svg>
