<svg width="240" height="32" viewBox="0 0 240 32" fill="none" xmlns="http://www.w3.org/2000/svg">
<path d="M27.8784 31.3376H20.8806L6.1839 10.0953V31.3433H0V0.485962H6.99787L21.6889 21.8526V0.485962H27.8728V31.3376H27.8784Z" fill="black"/>
<path d="M54.7662 31.5023C50.6173 31.5023 47.7231 28.3256 47.7231 23.7696V14.7368H43.6929V9.85301H47.7231V2.84949H53.907V9.85301H59.4861V14.7368H53.907V23.7753C53.907 25.0754 54.5571 26.0928 55.4954 26.2172C56.7164 26.3415 57.9373 25.4823 57.9373 25.4823L60.0966 30.2022C58.8813 30.7731 57.9034 31.5023 54.7662 31.5023Z" fill="black"/>
<path d="M88.822 5.2908H80.3544V30.8517H74.1705V5.2908H65.5391V0H88.822V5.2908Z" fill="black"/>
<path d="M153.875 15.7539C153.875 6.47236 160.143 -0.0393886 169.097 0.000179338C173.331 0.000179338 177.118 1.79204 179.842 4.60136L175.897 8.95383C174.472 6.83978 171.827 5.37011 169.057 5.37011C163.523 5.33054 160.064 9.3156 160.064 15.7482C160.064 22.1356 163.523 26.1263 169.057 26.1263C172.313 26.1263 174.427 24.4192 175.609 22.7913L179.842 26.9007C177.118 29.71 173.817 31.581 169.097 31.5019C160.143 31.5075 153.875 24.9958 153.875 15.7539Z" fill="black"/>
<path d="M189.509 0V31.5017H183.32V0H189.509Z" fill="black"/>
<path d="M203.852 26.5518C206.622 26.5123 208.493 24.0703 208.368 20.6901V9.49805H214.552V31.4752H208.368V27.9763C207.311 30.0112 204.988 31.4752 202.789 31.4752C196.927 31.4752 192.818 27.4449 192.818 21.0971V9.49805H199.008V21.0971C199.008 24.5565 201.003 26.5518 203.852 26.5518Z" fill="black"/>
<path d="M218.464 0H224.653V12.4526C226.281 10.7003 228.52 9.93155 230.108 9.93155C235.93 9.93155 240 14.2445 240 20.3944C240 26.584 235.93 30.9365 230.108 30.9365C228.52 30.9365 226.445 30.6538 224.653 28.3702V30.6482L218.464 30.6086V0ZM233.805 20.3888C233.805 16.969 232.137 14.8154 229.452 14.8154C226.767 14.8154 224.648 17.2573 224.648 20.3888C224.648 23.5655 226.762 26.047 229.452 26.047C232.137 26.047 233.805 23.8538 233.805 20.3888Z" fill="black"/>
<circle cx="35.1532" cy="20.9055" r="9.95724" fill="#FFD21D" stroke="black"/>
<path d="M31.8459 19.9326C31.6041 19.6639 31.1468 19.6095 30.8245 19.811C30.5021 20.0124 30.4368 20.3935 30.6785 20.6621C31.1824 21.222 32.6398 22.1212 34.91 22.1212C37.1803 22.1212 38.6377 21.222 39.1415 20.6621C39.3833 20.3935 39.318 20.0124 38.9956 19.811C38.6733 19.6095 38.216 19.6639 37.9742 19.9326C37.7485 20.1833 36.7254 20.9053 34.91 20.9053C33.0947 20.9053 32.0716 20.1833 31.8459 19.9326Z" fill="#212121"/>
<path d="M31.5053 18.7166C32.3112 18.7166 32.9644 17.9544 32.9644 17.0142C32.9644 16.0741 32.2349 15.3119 31.5053 15.3119C30.7757 15.3119 30.0461 16.0741 30.0461 17.0142C30.0461 17.9544 30.6994 18.7166 31.5053 18.7166Z" fill="#212121"/>
<path d="M38.0715 18.7166C39.0117 18.7166 39.7738 17.9544 39.7738 17.0142C39.7738 16.0741 38.9227 15.3119 38.0715 15.3119C37.2203 15.3119 36.3691 16.0741 36.3691 17.0142C36.3691 17.9544 37.1313 18.7166 38.0715 18.7166Z" fill="#212121"/>
<circle cx="89.0116" cy="20.6228" r="9.67461" fill="black" stroke="black"/>
<path d="M84.6149 15.2991C84.7469 15.1407 84.9609 15.1407 85.0929 15.2991L85.699 16.0264L86.305 15.2991C86.437 15.1407 86.651 15.1407 86.7831 15.2991C86.9151 15.4575 86.9151 15.7143 86.7831 15.8728L86.177 16.6L86.7831 17.3273C86.9151 17.4857 86.9151 17.7425 86.7831 17.9009C86.651 18.0593 86.437 18.0593 86.305 17.9009L85.699 17.1737L85.0929 17.9009C84.9609 18.0593 84.7469 18.0593 84.6149 17.9009C84.4829 17.7425 84.4829 17.4857 84.6149 17.3273L85.2209 16.6L84.6149 15.8728C84.4829 15.7143 84.4829 15.4575 84.6149 15.2991Z" fill="white"/>
<path d="M91.2402 15.2991C91.3722 15.1407 91.5863 15.1407 91.7183 15.2991L92.3243 16.0264L92.9304 15.2991C93.0624 15.1407 93.2764 15.1407 93.4084 15.2991C93.5404 15.4575 93.5404 15.7143 93.4084 15.8728L92.8024 16.6L93.4084 17.3273C93.5404 17.4857 93.5404 17.7425 93.4084 17.9009C93.2764 18.0593 93.0624 18.0593 92.9304 17.9009L92.3243 17.1737L91.7183 17.9009C91.5863 18.0593 91.3722 18.0593 91.2402 17.9009C91.1082 17.7425 91.1082 17.4857 91.2402 17.3273L91.8463 16.6L91.2402 15.8728C91.1082 15.7143 91.1082 15.4575 91.2402 15.2991Z" fill="white"/>
<path d="M89.0115 24.6447C90.449 24.6447 91.6143 23.4794 91.6143 22.0419C91.6143 20.6044 90.3129 19.4391 89.0115 19.4391C87.7101 19.4391 86.4087 20.6044 86.4087 22.0419C86.4087 23.4794 87.574 24.6447 89.0115 24.6447Z" fill="white"/>
<path d="M84.6149 15.2991C84.7469 15.1407 84.9609 15.1407 85.0929 15.2991L85.699 16.0264L86.305 15.2991C86.437 15.1407 86.651 15.1407 86.7831 15.2991C86.9151 15.4575 86.9151 15.7143 86.7831 15.8728L86.177 16.6L86.7831 17.3273C86.9151 17.4857 86.9151 17.7425 86.7831 17.9009C86.651 18.0593 86.437 18.0593 86.305 17.9009L85.699 17.1737L85.0929 17.9009C84.9609 18.0593 84.7469 18.0593 84.6149 17.9009C84.4829 17.7425 84.4829 17.4857 84.6149 17.3273L85.2209 16.6L84.6149 15.8728C84.4829 15.7143 84.4829 15.4575 84.6149 15.2991Z" fill="white"/>
<path d="M91.2402 15.2991C91.3722 15.1407 91.5863 15.1407 91.7183 15.2991L92.3243 16.0264L92.9304 15.2991C93.0624 15.1407 93.2764 15.1407 93.4084 15.2991C93.5404 15.4575 93.5404 15.7143 93.4084 15.8728L92.8024 16.6L93.4084 17.3273C93.5404 17.4857 93.5404 17.7425 93.4084 17.9009C93.2764 18.0593 93.0624 18.0593 92.9304 17.9009L92.3243 17.1737L91.7183 17.9009C91.5863 18.0593 91.3722 18.0593 91.2402 17.9009C91.1082 17.7425 91.1082 17.4857 91.2402 17.3273L91.8463 16.6L91.2402 15.8728C91.1082 15.7143 91.1082 15.4575 91.2402 15.2991Z" fill="white"/>
<path d="M108.282 0H119.474C128.513 0 134.86 6.34782 134.86 15.4258C134.86 24.5038 128.513 30.8517 119.474 30.8517H108.282V0ZM128.671 15.4258C128.671 9.24193 125.087 5.36993 119.35 5.36993L114.466 5.4095V25.4365L119.35 25.4761C125.093 25.4817 128.671 21.6154 128.671 15.4258Z" fill="black"/>
<circle cx="139.738" cy="21.0072" r="9.10935" fill="white" stroke="black"/>
<path d="M136.434 19.0051C137.264 19.0051 137.936 18.3329 137.936 17.5037C137.936 16.6744 137.185 16.0022 136.434 16.0022C135.684 16.0022 134.933 16.6744 134.933 17.5037C134.933 18.3329 135.605 19.0051 136.434 19.0051Z" fill="#212121"/>
<path d="M142.541 19.0051C143.425 19.0051 144.142 18.3329 144.142 17.5037C144.142 16.6744 143.341 16.0022 142.541 16.0022C141.74 16.0022 140.939 16.6744 140.939 17.5037C140.939 18.3329 141.656 19.0051 142.541 19.0051Z" fill="#212121"/>
<path d="M138.537 20.0054C138.426 20.0054 138.336 20.2294 138.336 20.5059C138.336 20.7823 138.426 21.0063 138.537 21.0063H139.538H140.539C140.649 21.0063 140.739 20.7823 140.739 20.5059C140.739 20.2294 140.649 20.0054 140.539 20.0054H138.537Z" fill="#212121"/>
</svg>
