<?xml version="1.0" standalone="no"?>
<!DOCTYPE svg PUBLIC "-//W3C//DTD SVG 20010904//EN"
 "http://www.w3.org/TR/2001/REC-SVG-20010904/DTD/svg10.dtd">
<svg version="1.0" xmlns="http://www.w3.org/2000/svg"
 width="1920.000000pt" height="1920.000000pt" viewBox="0 0 1920.000000 1920.000000"
 preserveAspectRatio="xMidYMid meet">
<metadata>
Created by potrace 1.14, written by Peter Selinger 2001-2017
</metadata>
<g transform="translate(0.000000,1920.000000) scale(0.100000,-0.100000)"
fill="#000000" stroke="none">
<path d="M15101 14381 c-6 -10 -8 -21 -4 -24 8 -9 8 -91 -1 -105 -4 -7 -2 -12
4 -12 7 0 8 -6 1 -19 -6 -10 -8 -21 -4 -24 8 -9 8 -91 -1 -105 -4 -7 -2 -12 4
-12 7 0 8 -6 1 -19 -6 -10 -8 -21 -4 -24 8 -9 8 -91 -1 -105 -4 -7 -2 -12 4
-12 7 0 8 -6 1 -19 -6 -10 -8 -21 -4 -24 8 -8 8 -91 0 -104 -4 -6 -4 -19 0
-29 5 -14 8 -78 3 -86 0 -2 -2 -31 -3 -66 -2 -49 1 -62 13 -63 8 -1 92 -2 185
-3 94 -1 175 -5 181 -8 6 -4 14 -4 18 0 11 10 229 10 244 -1 7 -6 12 -6 12 0
0 5 58 9 138 8 159 -2 210 -18 256 -77 37 -49 42 -93 40 -353 -1 -191 -4 -237
-18 -270 -37 -87 -96 -112 -272 -115 -362 -5 -433 -8 -479 -19 -176 -42 -303
-204 -310 -394 -2 -43 -6 -81 -8 -84 -3 -2 -2 -17 3 -32 4 -16 4 -34 0 -42 -5
-7 -6 -17 -3 -22 8 -13 7 -92 -1 -105 -4 -7 -2 -12 4 -12 7 0 8 -6 1 -19 -6
-10 -8 -21 -4 -24 8 -8 8 -91 0 -104 -4 -6 -4 -19 0 -29 5 -15 8 -68 3 -91 -1
-7 -1 -96 1 -188 0 -22 0 -44 -1 -50 -1 -12 0 -133 2 -192 1 -24 -1 -45 -4
-49 -4 -3 -3 -18 2 -33 4 -16 4 -34 0 -42 -5 -7 -6 -17 -3 -22 8 -13 7 -92 -1
-105 -4 -7 -2 -12 4 -12 7 0 8 -6 1 -19 -6 -10 -8 -21 -4 -24 8 -8 8 -91 0
-104 -4 -6 -4 -19 0 -29 5 -15 8 -68 3 -91 -1 -7 -1 -96 1 -188 0 -22 0 -44
-1 -50 -1 -12 0 -133 2 -192 1 -24 -1 -45 -4 -49 -4 -3 -3 -18 2 -33 4 -16 4
-34 0 -42 -5 -7 -6 -17 -3 -22 3 -6 6 -22 5 -37 l-1 -27 979 0 c695 0 980 3
983 11 3 10 1 840 -2 858 0 4 -205 7 -455 7 -468 -1 -498 1 -554 40 -12 9 -33
36 -47 62 -22 43 -23 55 -25 255 -2 250 -2 218 5 279 3 28 6 56 7 64 2 23 85
101 107 101 12 0 21 3 21 8 0 4 211 7 470 7 258 0 471 2 471 5 1 3 2 582 3
1288 l1 1282 -977 0 c-944 0 -978 -1 -987 -19z"/>
<path d="M4955 14078 c-57 -11 -125 -38 -159 -62 -44 -31 -116 -108 -116 -123
0 -7 -4 -13 -8 -13 -8 0 -25 -39 -48 -110 -13 -39 -15 -260 -15 -1545 0 -825
0 -1521 1 -1547 l0 -46 1500 0 c1389 0 1500 1 1501 16 1 10 2 206 3 438 l1
421 -980 0 c-692 0 -992 4 -1020 11 -46 13 -91 49 -112 89 -19 35 -37 213 -22
213 9 0 6 20 -4 37 -4 6 -3 15 3 18 8 5 7 11 -1 21 -9 11 -8 15 2 18 38 12 59
13 59 4 0 -5 5 -6 12 -2 16 10 118 11 118 0 0 -5 6 -4 13 3 10 8 17 7 25 -1 7
-7 12 -8 12 -2 0 5 25 9 55 9 30 0 55 -4 55 -9 0 -5 6 -4 13 3 10 8 17 7 25
-1 8 -8 12 -9 12 -1 0 7 11 8 34 3 19 -4 37 -5 40 -3 9 9 101 9 114 0 8 -6 12
-5 12 2 0 7 5 9 11 5 11 -7 42 -7 167 -1 28 1 52 -2 52 -6 0 -5 6 -5 12 -1 18
11 48 12 48 2 0 -5 4 -6 10 -3 16 10 90 11 90 2 0 -5 6 -5 13 2 10 8 17 7 25
-1 8 -8 12 -9 12 -1 0 7 11 8 34 3 19 -4 37 -5 40 -3 9 9 101 9 114 0 8 -6 12
-5 12 2 0 7 5 9 11 5 11 -7 42 -7 167 -1 28 1 52 -2 52 -6 0 -5 6 -5 12 -1 18
11 48 12 48 2 0 -5 4 -6 10 -3 16 10 90 11 90 2 0 -5 6 -5 13 2 10 8 17 7 25
-1 8 -8 12 -9 12 -1 0 7 11 8 34 3 19 -4 37 -6 40 -3 8 9 107 9 113 0 3 -5 9
-3 14 4 7 11 9 11 9 1 0 -8 5 -10 12 -6 6 4 31 7 55 7 43 -1 43 0 44 36 0 39
0 757 -1 807 l0 30 -991 0 c-545 -1 -996 2 -1001 5 -11 7 -13 82 -3 99 3 5 1
10 -5 10 -7 0 -8 6 -1 19 6 10 8 20 6 23 -14 14 46 164 82 204 45 51 -1 49
1058 54 l989 5 1 415 c0 228 -1 424 -3 436 l-4 20 -1306 0 c-719 0 -1325 -4
-1347 -8z"/>
<path d="M11615 13380 c-3 -4 -5 -201 -5 -436 l-1 -429 976 -2 c537 -1 979 -4
982 -6 3 -3 10 -4 17 -1 35 14 146 -68 146 -107 0 -10 4 -20 8 -23 5 -3 9 -55
11 -115 l2 -111 -1070 0 -1071 0 0 -47 c0 -117 -1 -704 0 -763 l0 -65 1068 0
1067 0 3 -343 2 -342 38 0 c161 -2 452 1 472 5 14 3 35 7 47 9 29 6 108 41
129 58 45 35 104 100 120 130 9 18 22 36 28 40 6 4 7 8 3 8 -4 0 -3 9 3 21 32
59 33 117 34 1344 l1 1180 -1503 1 c-826 1 -1504 -2 -1507 -6z"/>
<path d="M8409 12918 c-53 -9 -154 -58 -189 -91 -35 -34 -80 -86 -80 -93 0 -3
-9 -19 -21 -35 -11 -16 -18 -29 -16 -29 3 0 -3 -22 -14 -49 -17 -47 -18 -97
-19 -980 0 -512 3 -931 7 -932 11 0 2912 0 2949 0 l31 1 0 430 0 430 -974 0
c-1059 0 -1005 -3 -1069 56 -51 49 -77 110 -77 184 1 54 7 105 13 105 1 0 3 8
5 17 8 44 107 133 142 127 5 -1 13 0 18 1 6 1 444 3 975 4 l965 1 1 397 c0
219 4 401 7 404 4 4 2 13 -3 20 -6 6 -9 18 -8 25 2 11 -227 13 -1298 14 -715
0 -1320 -3 -1345 -7z"/>
<path d="M18290 12442 l0 -487 -456 0 c-251 0 -458 -3 -461 -7 -3 -6 -5 -427
-3 -813 l0 -60 303 2 c166 1 307 3 312 4 6 1 14 1 18 0 5 -1 71 -2 148 -2
l139 -1 1 -461 c1 -254 1 -465 0 -469 -1 -10 -12 -10 184 -12 94 -1 178 2 187
6 9 4 19 5 21 1 3 -5 112 -8 244 -8 l238 1 0 1397 1 1397 -438 0 -438 0 0
-488z"/>
<path d="M375 12913 c-57 -9 -145 -37 -145 -46 0 -6 -3 -8 -6 -4 -6 5 -62 -31
-89 -58 -32 -31 -79 -101 -103 -152 l-27 -58 -3 -1235 -2 -1236 982 0 983 0 0
433 c0 281 -4 433 -10 434 -5 1 -217 2 -470 3 l-460 1 -49 25 c-52 26 -81 57
-93 100 -4 14 -10 423 -13 910 l-5 885 -235 0 c-129 0 -244 -1 -255 -2z"/>
<path d="M2660 12912 c-13 -2 -15 -162 -13 -1375 1 -754 2 -1381 2 -1393 1
-20 3 -20 439 -20 l437 1 1 460 c1 253 2 465 3 470 1 7 109 10 316 10 274 0
315 2 316 15 5 112 0 843 -7 850 -13 12 -94 19 -94 8 0 -5 -5 -6 -11 -3 -9 6
-228 10 -254 5 -5 -1 -12 -2 -15 -1 -18 5 -200 5 -200 -1 0 -3 -12 -3 -27 1
l-28 7 0 482 c0 316 -3 482 -10 483 -21 3 -841 4 -855 1z"/>
<path d="M4599 10246 c-1 -1 -3 -197 -3 -437 l-2 -437 515 0 c284 0 522 -1
529 -1 9 -1 12 -94 12 -431 l0 -430 434 0 c338 0 435 3 438 13 2 6 4 200 4
430 l-1 417 40 1 c22 0 267 1 545 2 l504 2 1 436 0 435 -1507 1 c-830 0 -1509
0 -1509 -1z"/>
<path d="M8048 10236 c-3 -9 -2 -758 1 -838 l1 -26 522 0 522 1 6 -24 c3 -13
5 -207 4 -431 l-1 -408 437 0 437 0 1 143 c0 78 1 147 2 152 1 6 1 15 0 20 -5
22 -2 536 3 541 3 4 247 6 541 6 486 0 536 2 540 17 2 9 3 205 3 436 l-2 420
-1507 1 c-1098 1 -1508 -2 -1510 -10z"/>
<path d="M11597 10241 c-2 -3 -3 -199 -3 -436 l1 -430 1510 0 1510 0 0 435 0
435 -1508 1 c-829 1 -1509 -1 -1510 -5z"/>
<path d="M1709 9867 c-22 -31 -122 -177 -188 -272 -30 -44 -57 -82 -60 -85 -4
-3 -20 -25 -36 -50 -17 -25 -36 -51 -42 -58 -7 -7 -13 -17 -13 -22 0 -5 -6
-15 -13 -22 -8 -7 -44 -58 -82 -113 -38 -55 -71 -102 -74 -105 -3 -3 -20 -25
-36 -50 -29 -43 -169 -244 -199 -285 -12 -17 -232 -327 -266 -375 -54 -77
-181 -257 -187 -265 -5 -5 -19 -32 -33 -60 -21 -42 -25 -64 -25 -135 0 -62 5
-94 18 -117 21 -40 83 -100 111 -109 11 -4 23 -10 26 -14 5 -7 284 -143 300
-146 7 -1 99 -44 177 -82 l62 -30 63 89 c35 50 96 136 135 192 40 56 78 110
85 121 7 10 31 44 53 75 22 31 58 83 80 116 22 32 45 66 52 75 15 19 97 134
143 200 19 28 56 80 83 116 26 36 47 67 47 70 0 3 5 10 10 17 21 23 200 277
200 283 0 7 27 34 33 34 3 0 18 -20 34 -45 15 -25 31 -45 36 -45 4 0 7 -7 7
-15 0 -8 4 -15 8 -15 4 0 16 -15 26 -32 11 -18 39 -59 63 -91 23 -31 43 -60
43 -63 0 -3 6 -11 13 -18 6 -8 39 -53 72 -100 107 -155 244 -351 252 -361 5
-5 31 -41 58 -80 27 -38 53 -71 57 -73 4 -2 8 -9 8 -16 0 -6 13 -27 30 -46 16
-19 29 -38 30 -42 0 -4 7 -16 14 -25 19 -23 107 -147 170 -240 27 -40 53 -73
57 -73 8 0 43 29 108 90 15 14 58 52 97 85 38 33 81 71 95 85 15 14 39 36 55
49 16 13 63 54 104 91 41 37 90 80 109 96 18 16 43 38 55 49 12 11 37 32 55
47 21 19 29 32 24 41 -11 18 -124 167 -143 188 -32 37 -40 48 -40 58 0 5 -4
11 -8 13 -4 2 -34 41 -66 88 -33 47 -63 87 -67 88 -5 2 -9 8 -9 13 0 6 -19 36
-42 67 -24 31 -47 65 -53 74 -5 9 -30 45 -54 80 -24 35 -54 77 -65 93 -12 17
-23 32 -26 35 -3 3 -25 34 -49 70 -24 36 -49 68 -55 72 -6 4 -8 8 -3 8 4 0 -1
8 -10 18 -26 27 -53 61 -53 67 0 4 -101 148 -124 175 -7 9 -15 22 -19 30 -4 8
-89 132 -190 275 l-184 260 -414 2 -414 3 -16 -23z"/>
<path d="M16865 9873 c2 -7 -1 -13 -7 -13 -7 0 -7 -4 1 -14 8 -10 9 -16 1 -21
-7 -4 -7 -12 0 -26 6 -10 7 -19 3 -19 -4 0 -6 -34 -3 -76 3 -42 2 -78 -2 -81
-5 -2 -3 -13 2 -24 6 -10 7 -19 3 -19 -4 0 -6 -34 -3 -76 3 -42 2 -78 -2 -81
-5 -2 -3 -13 2 -24 8 -14 7 -19 -1 -19 -9 0 -9 -3 0 -14 8 -10 9 -16 1 -21 -7
-4 -7 -12 0 -26 6 -11 7 -19 1 -19 -5 0 -6 -14 -1 -35 4 -20 4 -38 -1 -41 -5
-3 -5 -13 1 -25 6 -10 7 -19 2 -19 -4 0 -5 -25 -2 -56 3 -30 3 -57 -2 -60 -4
-3 -3 -14 2 -25 6 -11 7 -19 1 -19 -5 0 -6 -14 -1 -35 4 -20 4 -38 -1 -41 -5
-3 -5 -13 1 -25 8 -14 7 -19 -1 -19 -9 0 -9 -3 0 -14 8 -10 9 -16 1 -21 -7 -4
-7 -12 0 -26 6 -10 7 -19 3 -19 -4 0 -6 -34 -3 -76 3 -42 2 -78 -2 -81 -5 -2
-3 -13 2 -24 6 -10 7 -19 3 -19 -4 0 -6 -34 -3 -76 3 -42 2 -78 -2 -81 -5 -2
-3 -13 2 -24 8 -14 7 -19 -1 -19 -9 0 -9 -3 0 -14 8 -10 9 -16 1 -21 -7 -4 -7
-12 0 -26 6 -11 7 -19 1 -19 -5 0 -6 -14 -1 -35 4 -20 4 -38 -1 -41 -5 -3 -5
-13 1 -25 6 -10 7 -19 2 -19 -4 0 -5 -25 -2 -56 3 -30 3 -57 -2 -60 -4 -3 -3
-14 2 -25 6 -11 7 -19 1 -19 -5 0 -6 -14 -1 -35 4 -20 4 -38 -1 -41 -5 -3 -5
-13 1 -25 8 -14 7 -19 -1 -19 -9 0 -9 -3 0 -14 8 -10 9 -16 1 -21 -7 -4 -7
-12 0 -26 6 -10 7 -19 3 -19 -4 0 -6 -34 -3 -76 3 -42 2 -78 -2 -81 -5 -2 -3
-13 2 -24 6 -10 7 -19 3 -19 -4 0 -7 -38 -5 -84 l3 -84 1170 0 1169 1 -2 1031
-3 1031 -33 67 c-30 62 -118 164 -167 196 -93 59 -149 67 -430 67 l-250 0 -3
-222 c-1 -123 -6 -223 -10 -224 -48 -4 -92 -2 -92 4 0 5 -5 5 -12 1 -15 -10
-258 -11 -258 -1 0 4 -8 4 -17 0 -10 -5 -40 -7 -68 -6 -27 2 -62 3 -77 3 l-28
0 0 223 0 222 -445 0 c-356 0 -444 -2 -440 -12z m1443 -1407 l-3 -201 -277 -1
-278 0 0 201 0 202 280 0 280 0 -2 -201z"/>
<path d="M11559 9070 c-1 -7 -1 -863 0 -870 2 -9 511 -5 511 3 0 5 5 5 12 1
19 -12 228 -11 228 1 0 6 3 7 8 0 10 -13 145 -14 154 -1 5 7 8 7 8 1 0 -14
150 -14 150 0 0 6 3 7 8 0 9 -12 152 -15 152 -3 0 5 5 6 12 2 17 -11 388 -11
388 -1 0 4 5 5 12 1 6 -4 79 -8 162 -9 191 -2 235 -19 282 -105 17 -32 19 -59
19 -300 0 -251 -1 -267 -22 -310 -23 -48 -69 -82 -130 -95 -18 -3 -377 -7
-797 -7 -446 0 -786 -4 -813 -10 -27 -5 -64 -17 -83 -25 -19 -9 -35 -14 -35
-12 -1 16 -152 -135 -170 -172 -25 -47 -46 -109 -52 -154 -7 -50 -10 -2184 -3
-2194 3 -4 674 -6 1493 -6 1481 0 1487 0 1488 20 4 71 3 848 -1 854 -3 4 -441
7 -975 6 -1048 0 -1007 -2 -1067 53 -54 50 -61 89 -60 350 0 130 2 246 5 257
20 77 65 128 129 146 49 13 598 19 598 6 0 -5 6 -5 12 -1 17 11 468 11 468 1
0 -5 6 -5 12 -1 18 11 468 11 468 0 0 -5 6 -4 13 1 6 5 93 8 192 7 99 -1 187
0 195 2 13 3 15 153 14 1281 -1 703 -2 1280 -3 1283 -1 8 -2981 8 -2982 0z"/>
</g>
</svg>
