<?xml version="1.0" standalone="no"?>
<!DOCTYPE svg PUBLIC "-//W3C//DTD SVG 20010904//EN"
 "http://www.w3.org/TR/2001/REC-SVG-20010904/DTD/svg10.dtd">
<svg version="1.0" xmlns="http://www.w3.org/2000/svg"
 width="1688.000000pt" height="1688.000000pt" viewBox="0 0 1688.000000 1688.000000"
 preserveAspectRatio="xMidYMid meet">
<metadata>
Created by potrace 1.14, written by Peter Selinger 2001-2017
</metadata>
<g transform="translate(0.000000,1688.000000) scale(0.100000,-0.100000)"
fill="#000000" stroke="none">
<path d="M4690 12090 c-476 -28 -958 -189 -1242 -415 l-58 -45 0 -143 0 -143
330 -569 c182 -313 339 -593 350 -622 11 -30 20 -76 20 -103 0 -41 -5 -55 -31
-84 -25 -29 -78 -56 -111 -56 -4 0 -91 141 -194 313 -597 995 -956 1539 -1060
1609 -113 74 -259 133 -449 183 -177 46 -308 64 -515 72 -477 16 -988 -86
-1273 -255 -108 -64 -205 -155 -248 -234 l-34 -63 -3 -2738 c-2 -2665 -2
-2741 17 -2832 88 -433 464 -723 1075 -831 133 -23 228 -29 491 -29 267 0 372
6 500 29 339 62 579 146 813 285 l122 73 0 136 0 137 -365 590 c-426 687 -448
727 -448 817 1 99 35 148 115 163 l35 7 88 -149 c587 -983 744 -1227 1080
-1677 l110 -147 90 -44 c161 -79 407 -150 670 -192 156 -25 689 -25 852 0 401
61 629 159 806 346 112 119 177 272 177 414 0 53 10 71 25 46 11 -17 183 -151
285 -221 739 -510 1637 -717 2525 -582 585 88 1150 333 1623 702 51 39 95 72
97 72 3 0 49 -34 103 -76 650 -509 1497 -778 2313 -734 182 10 189 11 359 35
726 103 1419 453 1955 990 796 796 1155 1896 984 3020 -54 360 -176 730 -353
1070 -476 921 -1361 1598 -2364 1809 -251 53 -384 68 -663 73 -353 7 -560 -13
-869 -83 -476 -109 -918 -315 -1316 -615 -80 -60 -147 -109 -149 -109 -3 0
-48 34 -101 76 -525 410 -1169 663 -1842 724 -172 16 -605 8 -762 -15 -409
-57 -754 -163 -1110 -342 -262 -131 -465 -263 -675 -437 -44 -36 -82 -66 -85
-66 -3 0 -13 29 -22 64 -51 193 -205 402 -388 526 -237 161 -539 245 -971 270
-96 5 -176 9 -179 8 -3 0 -61 -4 -130 -8z m4295 -535 c77 -8 149 -15 160 -15
32 0 4 -15 -81 -42 -339 -109 -690 -356 -924 -649 -545 -682 -585 -1637 -98
-2361 375 -560 993 -887 1674 -888 l131 0 48 -137 c142 -410 358 -791 645
-1135 l31 -37 -53 -42 c-87 -68 -296 -204 -404 -262 -330 -176 -645 -277
-1039 -334 -170 -24 -594 -24 -755 1 -578 87 -1034 281 -1470 625 -127 101
-419 392 -443 443 -10 21 -28 50 -41 65 -13 15 -50 66 -83 113 -235 333 -405
731 -483 1130 -68 351 -68 789 0 1140 83 426 267 841 529 1195 37 50 73 103
81 120 23 46 343 362 450 445 438 336 895 533 1420 610 215 31 490 37 705 15z
m4510 0 c157 -15 181 -20 154 -30 -8 -2 -54 -18 -104 -36 -275 -95 -536 -259
-750 -474 -315 -314 -506 -700 -570 -1146 -19 -134 -19 -387 0 -531 152 -1149
1247 -1928 2388 -1697 281 56 584 196 822 378 85 64 256 232 328 321 140 173
261 391 336 604 21 60 41 105 44 99 3 -5 10 -54 16 -109 58 -565 -29 -1096
-260 -1592 -92 -197 -246 -443 -382 -612 -89 -110 -298 -320 -407 -410 -523
-432 -1129 -663 -1805 -686 -825 -28 -1610 281 -2195 866 -500 500 -796 1132
-861 1840 -16 176 -6 528 21 700 120 779 530 1466 1155 1934 596 447 1327 652
2070 581z"/>
</g>
</svg>
